<mxfile host="app.diagrams.net" agent="Mozilla/5.0 (Windows NT 10.0; Win64; x64) AppleWebKit/537.36 (KHTML, like Gecko) Chrome/127.0.0.0 Safari/537.36 OPR/113.0.0.0" version="24.7.16" pages="6">
  <diagram id="GlvSI-3HDw1wDYA16GSp" name="Container">
    <mxGraphModel dx="2729" dy="1623" grid="1" gridSize="10" guides="1" tooltips="1" connect="1" arrows="1" fold="1" page="1" pageScale="1" pageWidth="1169" pageHeight="827" math="0" shadow="0">
      <root>
        <mxCell id="0" />
        <mxCell id="1" parent="0" />
        <object placeholders="1" c4Name="Water Park" c4Type="System Park" c4Application="Software System" label="&lt;font style=&quot;font-size: 16px&quot;&gt;&lt;span&gt;&lt;div style=&quot;&quot;&gt;%c4Name%&lt;/div&gt;&lt;/span&gt;&lt;/font&gt;&lt;div style=&quot;&quot;&gt;[%c4Application%]&lt;/div&gt;" id="FROApq9FdC5uCxI3l32n-1">
          <mxCell style="rounded=1;fontSize=11;whiteSpace=wrap;html=1;dashed=1;arcSize=20;fillColor=none;strokeColor=#666666;fontColor=default;labelBackgroundColor=none;align=left;verticalAlign=bottom;labelBorderColor=none;spacingTop=0;spacing=10;dashPattern=8 4;metaEdit=1;rotatable=0;perimeter=rectanglePerimeter;labelPadding=0;allowArrows=0;connectable=0;expand=0;recursiveResize=0;editable=1;pointerEvents=0;absoluteArcSize=1;points=[[0.25,0,0],[0.5,0,0],[0.75,0,0],[1,0.25,0],[1,0.5,0],[1,0.75,0],[0.75,1,0],[0.5,1,0],[0.25,1,0],[0,0.75,0],[0,0.5,0],[0,0.25,0]];fontStyle=1;fontFamily=Tahoma;" parent="1" vertex="1">
            <mxGeometry x="160" y="-10" width="1390" height="750" as="geometry" />
          </mxCell>
        </object>
        <mxCell id="FROApq9FdC5uCxI3l32n-13" style="edgeStyle=orthogonalEdgeStyle;rounded=0;orthogonalLoop=1;jettySize=auto;html=1;align=center;fontStyle=1;fontColor=default;labelBackgroundColor=none;labelBorderColor=none;verticalAlign=middle;fontFamily=Tahoma;fillColor=#dae8fc;strokeColor=#CC6600;dashed=1;dashPattern=8 8;" parent="1" source="FROApq9FdC5uCxI3l32n-2" target="FROApq9FdC5uCxI3l32n-5" edge="1">
          <mxGeometry relative="1" as="geometry">
            <Array as="points">
              <mxPoint x="330" y="340" />
            </Array>
          </mxGeometry>
        </mxCell>
        <mxCell id="FROApq9FdC5uCxI3l32n-15" style="edgeStyle=orthogonalEdgeStyle;rounded=0;orthogonalLoop=1;jettySize=auto;html=1;align=center;fontStyle=1;fontColor=default;labelBackgroundColor=none;labelBorderColor=none;verticalAlign=middle;fontFamily=Tahoma;fillColor=#dae8fc;strokeColor=#CC6600;dashed=1;dashPattern=8 8;" parent="1" source="FROApq9FdC5uCxI3l32n-2" target="FROApq9FdC5uCxI3l32n-10" edge="1">
          <mxGeometry relative="1" as="geometry">
            <Array as="points">
              <mxPoint x="1390" y="340" />
            </Array>
          </mxGeometry>
        </mxCell>
        <mxCell id="FROApq9FdC5uCxI3l32n-17" style="edgeStyle=orthogonalEdgeStyle;rounded=0;orthogonalLoop=1;jettySize=auto;html=1;align=center;fontStyle=1;fontColor=default;labelBackgroundColor=none;labelBorderColor=none;verticalAlign=middle;fontFamily=Tahoma;fillColor=#dae8fc;strokeColor=#CC6600;dashed=1;dashPattern=8 8;" parent="1" source="FROApq9FdC5uCxI3l32n-2" target="FROApq9FdC5uCxI3l32n-7" edge="1">
          <mxGeometry relative="1" as="geometry" />
        </mxCell>
        <mxCell id="x2Y0Ekb4y_YCDkYeXy8J-4" style="edgeStyle=orthogonalEdgeStyle;rounded=0;orthogonalLoop=1;jettySize=auto;html=1;fontFamily=Helvetica;fontSize=11;fontColor=#ffffff;labelBackgroundColor=none;resizable=0;" parent="1" source="FROApq9FdC5uCxI3l32n-2" target="FROApq9FdC5uCxI3l32n-32" edge="1">
          <mxGeometry relative="1" as="geometry">
            <Array as="points">
              <mxPoint x="280" y="300" />
              <mxPoint x="280" y="440" />
            </Array>
          </mxGeometry>
        </mxCell>
        <mxCell id="x2Y0Ekb4y_YCDkYeXy8J-5" style="edgeStyle=orthogonalEdgeStyle;rounded=0;orthogonalLoop=1;jettySize=auto;html=1;fontFamily=Helvetica;fontSize=11;fontColor=#ffffff;labelBackgroundColor=none;resizable=0;" parent="1" source="FROApq9FdC5uCxI3l32n-2" target="FROApq9FdC5uCxI3l32n-36" edge="1">
          <mxGeometry relative="1" as="geometry">
            <Array as="points">
              <mxPoint x="280" y="270" />
              <mxPoint x="280" y="190" />
            </Array>
          </mxGeometry>
        </mxCell>
        <object placeholders="1" c4Name="API Gateway" c4Type="Container" c4Technology="SpringBoot" c4Description="Cadastro, autenticação e autorização de usuários no sistema" label="&lt;font style=&quot;font-size: 16px&quot;&gt;&lt;span&gt;%c4Name%&lt;/span&gt;&lt;/font&gt;&lt;div&gt;[%c4Type%: %c4Technology%]&lt;/div&gt;&lt;br&gt;&lt;div&gt;&lt;font style=&quot;font-size: 11px&quot;&gt;&lt;font&gt;%c4Description%&lt;/font&gt;&lt;/font&gt;&lt;/div&gt;" id="FROApq9FdC5uCxI3l32n-2">
          <mxCell style="rounded=1;whiteSpace=wrap;html=1;fontSize=11;labelBackgroundColor=none;fillColor=#3399FF;align=center;arcSize=10;strokeColor=#000000;metaEdit=1;resizable=0;points=[[0.25,0,0],[0.5,0,0],[0.75,0,0],[1,0.25,0],[1,0.5,0],[1,0.75,0],[0.75,1,0],[0.5,1,0],[0.25,1,0],[0,0.75,0],[0,0.5,0],[0,0.25,0]];fontStyle=1;labelBorderColor=none;verticalAlign=middle;fontFamily=Tahoma;" parent="1" vertex="1">
            <mxGeometry x="730" y="240" width="240" height="120" as="geometry" />
          </mxCell>
        </object>
        <object placeholders="1" c4Name="Mobile App" c4Type="Container" c4Technology="Container: Android Kotlin" c4Description="Aplicativo que usuarios acessam para usar as funcionalidades do parque" label="&lt;font style=&quot;font-size: 16px&quot;&gt;&lt;span&gt;%c4Name%&lt;/span&gt;&lt;/font&gt;&lt;div&gt;[%c4Type%: %c4Technology%]&lt;/div&gt;&lt;br&gt;&lt;div&gt;&lt;font style=&quot;font-size: 11px&quot;&gt;&lt;font&gt;%c4Description%&lt;/font&gt;&lt;/font&gt;&lt;/div&gt;" id="FROApq9FdC5uCxI3l32n-3">
          <mxCell style="rounded=1;whiteSpace=wrap;html=1;fontSize=11;labelBackgroundColor=none;fillColor=#3399FF;align=center;arcSize=10;strokeColor=#000000;metaEdit=1;resizable=0;points=[[0.25,0,0],[0.5,0,0],[0.75,0,0],[1,0.25,0],[1,0.5,0],[1,0.75,0],[0.75,1,0],[0.5,1,0],[0.25,1,0],[0,0.75,0],[0,0.5,0],[0,0.25,0]];fontStyle=1;labelBorderColor=none;verticalAlign=middle;fontFamily=Tahoma;" parent="1" vertex="1">
            <mxGeometry x="340" y="60" width="240" height="120" as="geometry" />
          </mxCell>
        </object>
        <mxCell id="FROApq9FdC5uCxI3l32n-24" style="edgeStyle=orthogonalEdgeStyle;rounded=0;orthogonalLoop=1;jettySize=auto;html=1;align=center;fontStyle=1;fontColor=default;labelBackgroundColor=none;labelBorderColor=none;verticalAlign=middle;fontFamily=Tahoma;strokeColor=#CC6600;dashed=1;dashPattern=8 8;" parent="1" source="FROApq9FdC5uCxI3l32n-5" target="FROApq9FdC5uCxI3l32n-22" edge="1">
          <mxGeometry relative="1" as="geometry">
            <Array as="points">
              <mxPoint x="330" y="870" />
            </Array>
          </mxGeometry>
        </mxCell>
        <object placeholders="1" c4Name="MicroService/Fidelity " c4Type="Container" c4Technology="SpringBoot" c4Description="Envia dados de atribuição, resgate, saldo e validade para a API de fidelidade." label="&lt;font style=&quot;font-size: 16px&quot;&gt;&lt;span&gt;%c4Name%&lt;/span&gt;&lt;/font&gt;&lt;div&gt;[%c4Type%: %c4Technology%]&lt;/div&gt;&lt;br&gt;&lt;div&gt;&lt;font style=&quot;font-size: 11px&quot;&gt;&lt;font&gt;%c4Description%&lt;/font&gt;&lt;/font&gt;&lt;/div&gt;" id="FROApq9FdC5uCxI3l32n-5">
          <mxCell style="rounded=0;whiteSpace=wrap;html=1;fontSize=11;labelBackgroundColor=none;fillColor=#3399FF;align=center;arcSize=10;strokeColor=#000000;metaEdit=1;resizable=0;points=[[0.25,0,0],[0.5,0,0],[0.75,0,0],[1,0.25,0],[1,0.5,0],[1,0.75,0],[0.75,1,0],[0.5,1,0],[0.25,1,0],[0,0.75,0],[0,0.5,0],[0,0.25,0]];fontStyle=1;labelBorderColor=none;verticalAlign=middle;fontFamily=Tahoma;shadow=0;gradientColor=none;imageWidth=30;imageHeight=24;rotation=0;" parent="1" vertex="1">
            <mxGeometry x="210" y="530" width="240" height="120" as="geometry" />
          </mxCell>
        </object>
        <object placeholders="1" c4Name="MicroService/Security-Payment" c4Type="Container" c4Technology="SpringBoot" c4Description="Envia dados de cadastro, autenticação e pagamento para a API de segurança." label="&lt;font style=&quot;font-size: 16px&quot;&gt;&lt;span&gt;%c4Name%&lt;/span&gt;&lt;/font&gt;&lt;div&gt;[%c4Type%: %c4Technology%]&lt;/div&gt;&lt;br&gt;&lt;div&gt;&lt;font style=&quot;font-size: 11px&quot;&gt;&lt;font&gt;%c4Description%&lt;/font&gt;&lt;/font&gt;&lt;/div&gt;" id="FROApq9FdC5uCxI3l32n-6">
          <mxCell style="rounded=0;whiteSpace=wrap;html=1;fontSize=11;labelBackgroundColor=none;fillColor=#3399FF;align=center;arcSize=10;strokeColor=#000000;metaEdit=1;resizable=0;points=[[0.25,0,0],[0.5,0,0],[0.75,0,0],[1,0.25,0],[1,0.5,0],[1,0.75,0],[0.75,1,0],[0.5,1,0],[0.25,1,0],[0,0.75,0],[0,0.5,0],[0,0.25,0]];fontStyle=1;labelBorderColor=none;verticalAlign=middle;fontFamily=Tahoma;shadow=0;gradientColor=none;imageWidth=30;imageHeight=24;" parent="1" vertex="1">
            <mxGeometry x="470" y="530" width="240" height="120" as="geometry" />
          </mxCell>
        </object>
        <mxCell id="FROApq9FdC5uCxI3l32n-26" style="edgeStyle=orthogonalEdgeStyle;rounded=0;orthogonalLoop=1;jettySize=auto;html=1;align=center;fontStyle=1;fontColor=default;labelBackgroundColor=none;labelBorderColor=none;verticalAlign=middle;fontFamily=Tahoma;strokeColor=#CC6600;dashed=1;dashPattern=8 8;" parent="1" source="FROApq9FdC5uCxI3l32n-7" target="FROApq9FdC5uCxI3l32n-22" edge="1">
          <mxGeometry relative="1" as="geometry" />
        </mxCell>
        <object placeholders="1" c4Name="MicroService/Support" c4Type="Container" c4Technology="SpringBoot" c4Description="Responsável por receber e gerenciar os dados do formulário de chamados e tickets, e enviar para a API de controle de atendimento ao cliente." label="&lt;font style=&quot;font-size: 16px&quot;&gt;&lt;span&gt;%c4Name%&lt;/span&gt;&lt;/font&gt;&lt;div&gt;[%c4Type%: %c4Technology%]&lt;/div&gt;&lt;br&gt;&lt;div&gt;&lt;font style=&quot;font-size: 11px&quot;&gt;&lt;font&gt;%c4Description%&lt;/font&gt;&lt;/font&gt;&lt;/div&gt;" id="FROApq9FdC5uCxI3l32n-7">
          <mxCell style="rounded=0;whiteSpace=wrap;html=1;fontSize=11;labelBackgroundColor=none;fillColor=#3399FF;align=center;arcSize=10;strokeColor=#000000;metaEdit=1;resizable=0;points=[[0.25,0,0],[0.5,0,0],[0.75,0,0],[1,0.25,0],[1,0.5,0],[1,0.75,0],[0.75,1,0],[0.5,1,0],[0.25,1,0],[0,0.75,0],[0,0.5,0],[0,0.25,0]];fontStyle=1;labelBorderColor=none;verticalAlign=middle;fontFamily=Tahoma;shadow=0;gradientColor=none;imageWidth=30;imageHeight=24;" parent="1" vertex="1">
            <mxGeometry x="730" y="530" width="240" height="120" as="geometry" />
          </mxCell>
        </object>
        <object placeholders="1" c4Name="MicroService/Translation" c4Type="Container" c4Technology="SpringBoot" c4Description="Responsável por receber os dados de preferencia de acessibilidade do usuário, e enviar para api externa de conversão de texto em fala." label="&lt;font style=&quot;font-size: 16px&quot;&gt;&lt;span&gt;%c4Name%&lt;/span&gt;&lt;/font&gt;&lt;div&gt;[%c4Type%: %c4Technology%]&lt;/div&gt;&lt;br&gt;&lt;div&gt;&lt;font style=&quot;font-size: 11px&quot;&gt;&lt;font&gt;%c4Description%&lt;/font&gt;&lt;/font&gt;&lt;/div&gt;" id="FROApq9FdC5uCxI3l32n-9">
          <mxCell style="rounded=0;whiteSpace=wrap;html=1;fontSize=11;labelBackgroundColor=none;fillColor=#3399FF;align=center;arcSize=10;strokeColor=#000000;metaEdit=1;resizable=0;points=[[0.25,0,0],[0.5,0,0],[0.75,0,0],[1,0.25,0],[1,0.5,0],[1,0.75,0],[0.75,1,0],[0.5,1,0],[0.25,1,0],[0,0.75,0],[0,0.5,0],[0,0.25,0]];fontStyle=1;labelBorderColor=none;verticalAlign=middle;fontFamily=Tahoma;shadow=0;gradientColor=none;imageWidth=30;imageHeight=24;" parent="1" vertex="1">
            <mxGeometry x="990" y="530" width="240" height="120" as="geometry" />
          </mxCell>
        </object>
        <object placeholders="1" c4Name="MicroService/Location" c4Type="Container" c4Technology="SpringBoot" c4Description="Responsável por receber os dados de conteúdo para tradução e localização, e enviar para a API externa de serviços de tradução multilíngue." label="&lt;font style=&quot;font-size: 16px&quot;&gt;&lt;span&gt;%c4Name%&lt;/span&gt;&lt;/font&gt;&lt;div&gt;[%c4Type%: %c4Technology%]&lt;/div&gt;&lt;br&gt;&lt;div&gt;&lt;font style=&quot;font-size: 11px&quot;&gt;&lt;font&gt;%c4Description%&lt;/font&gt;&lt;/font&gt;&lt;/div&gt;" id="FROApq9FdC5uCxI3l32n-10">
          <mxCell style="rounded=0;whiteSpace=wrap;html=1;fontSize=11;labelBackgroundColor=none;fillColor=#3399FF;align=center;arcSize=25;strokeColor=#000000;metaEdit=1;resizable=0;points=[[0.25,0,0],[0.5,0,0],[0.75,0,0],[1,0.25,0],[1,0.5,0],[1,0.75,0],[0.75,1,0],[0.5,1,0],[0.25,1,0],[0,0.75,0],[0,0.5,0],[0,0.25,0]];fontStyle=1;labelBorderColor=none;verticalAlign=middle;fontFamily=Tahoma;shadow=0;gradientColor=none;imageWidth=30;imageHeight=24;" parent="1" vertex="1">
            <mxGeometry x="1260" y="530" width="240" height="120" as="geometry" />
          </mxCell>
        </object>
        <mxCell id="FROApq9FdC5uCxI3l32n-14" style="edgeStyle=orthogonalEdgeStyle;rounded=0;orthogonalLoop=1;jettySize=auto;html=1;entryX=0.25;entryY=0;entryDx=0;entryDy=0;entryPerimeter=0;align=center;fontStyle=1;fontColor=default;labelBackgroundColor=none;labelBorderColor=none;verticalAlign=middle;fontFamily=Tahoma;fillColor=#dae8fc;strokeColor=#CC6600;dashed=1;dashPattern=8 8;" parent="1" source="FROApq9FdC5uCxI3l32n-2" target="FROApq9FdC5uCxI3l32n-6" edge="1">
          <mxGeometry relative="1" as="geometry">
            <Array as="points">
              <mxPoint x="530" y="360" />
            </Array>
          </mxGeometry>
        </mxCell>
        <mxCell id="FROApq9FdC5uCxI3l32n-16" style="edgeStyle=orthogonalEdgeStyle;rounded=0;orthogonalLoop=1;jettySize=auto;html=1;entryX=0.75;entryY=0;entryDx=0;entryDy=0;entryPerimeter=0;align=center;fontStyle=1;fontColor=default;labelBackgroundColor=none;labelBorderColor=none;verticalAlign=middle;fontFamily=Tahoma;fillColor=#dae8fc;strokeColor=#CC6600;dashed=1;dashPattern=8 8;" parent="1" source="FROApq9FdC5uCxI3l32n-2" target="FROApq9FdC5uCxI3l32n-9" edge="1">
          <mxGeometry relative="1" as="geometry">
            <Array as="points">
              <mxPoint x="1170" y="360" />
            </Array>
          </mxGeometry>
        </mxCell>
        <mxCell id="FROApq9FdC5uCxI3l32n-19" style="edgeStyle=orthogonalEdgeStyle;rounded=0;orthogonalLoop=1;jettySize=auto;html=1;entryX=0.25;entryY=0;entryDx=0;entryDy=0;entryPerimeter=0;align=center;fontStyle=1;fontColor=default;labelBackgroundColor=none;labelBorderColor=none;verticalAlign=middle;fontFamily=Tahoma;fillColor=#dae8fc;strokeColor=#CC6600;dashed=1;dashPattern=8 8;" parent="1" source="FROApq9FdC5uCxI3l32n-3" target="FROApq9FdC5uCxI3l32n-2" edge="1">
          <mxGeometry relative="1" as="geometry">
            <Array as="points">
              <mxPoint x="710" y="120" />
              <mxPoint x="710" y="220" />
              <mxPoint x="790" y="220" />
            </Array>
          </mxGeometry>
        </mxCell>
        <mxCell id="FROApq9FdC5uCxI3l32n-21" style="edgeStyle=orthogonalEdgeStyle;rounded=0;orthogonalLoop=1;jettySize=auto;html=1;align=center;fontStyle=1;fontColor=default;labelBackgroundColor=none;labelBorderColor=none;verticalAlign=middle;fontFamily=Tahoma;fillColor=#dae8fc;strokeColor=#CC6600;dashed=1;dashPattern=8 8;" parent="1" source="FROApq9FdC5uCxI3l32n-20" target="FROApq9FdC5uCxI3l32n-2" edge="1">
          <mxGeometry relative="1" as="geometry">
            <Array as="points">
              <mxPoint x="990" y="220" />
              <mxPoint x="920" y="220" />
            </Array>
          </mxGeometry>
        </mxCell>
        <object placeholders="1" c4Name="Front-end" c4Type="Container" c4Technology="AngularJS " c4Description="Recebe o comando de acessibilidade do usuário e envia a requisição." label="&lt;font style=&quot;font-size: 16px&quot;&gt;&lt;span&gt;%c4Name%&lt;/span&gt;&lt;/font&gt;&lt;div&gt;[%c4Type%:&amp;nbsp;%c4Technology%]&lt;/div&gt;&lt;br&gt;&lt;div&gt;&lt;font style=&quot;font-size: 11px&quot;&gt;&lt;font&gt;%c4Description%&lt;/font&gt;&lt;/font&gt;&lt;/div&gt;" id="FROApq9FdC5uCxI3l32n-20">
          <mxCell style="shape=mxgraph.c4.webBrowserContainer2;whiteSpace=wrap;html=1;boundedLbl=1;rounded=0;labelBackgroundColor=none;strokeColor=#CC6600;fillColor=#3399FF;strokeColor=#118ACD;strokeColor2=#0E7DAD;fontSize=12;align=center;metaEdit=1;points=[[0.5,0,0],[1,0.25,0],[1,0.5,0],[1,0.75,0],[0.5,1,0],[0,0.75,0],[0,0.5,0],[0,0.25,0]];resizable=0;fontStyle=1;labelBorderColor=none;verticalAlign=middle;fontFamily=Tahoma;dashed=1;dashPattern=8 8;" parent="1" vertex="1">
            <mxGeometry x="1150" y="40" width="240" height="160" as="geometry" />
          </mxCell>
        </object>
        <object placeholders="1" c4Name="Banco de Dados" c4Type="Container" c4Technology="MySQL" c4Description="Armazena os dados dos clientes e chamados" label="&lt;font style=&quot;font-size: 16px&quot;&gt;&lt;span&gt;%c4Name%&lt;/span&gt;&lt;/font&gt;&lt;div&gt;[%c4Type%:&amp;nbsp;%c4Technology%]&lt;/div&gt;&lt;br&gt;&lt;div&gt;&lt;font style=&quot;font-size: 11px&quot;&gt;&lt;font&gt;%c4Description%&lt;/font&gt;&lt;/font&gt;&lt;/div&gt;" id="FROApq9FdC5uCxI3l32n-22">
          <mxCell style="shape=cylinder3;size=15;whiteSpace=wrap;html=1;boundedLbl=1;rounded=0;labelBackgroundColor=none;fillColor=#f5f5f5;fontSize=12;fontColor=#333333;align=center;strokeColor=#000000;metaEdit=1;points=[[0.5,0,0],[1,0.25,0],[1,0.5,0],[1,0.75,0],[0.5,1,0],[0,0.75,0],[0,0.5,0],[0,0.25,0]];resizable=0;fontStyle=1;labelBorderColor=none;verticalAlign=middle;fontFamily=Tahoma;" parent="1" vertex="1">
            <mxGeometry x="730" y="790" width="240" height="120" as="geometry" />
          </mxCell>
        </object>
        <mxCell id="FROApq9FdC5uCxI3l32n-25" style="edgeStyle=orthogonalEdgeStyle;rounded=0;orthogonalLoop=1;jettySize=auto;html=1;entryX=0;entryY=0.25;entryDx=0;entryDy=0;entryPerimeter=0;align=center;fontStyle=1;fontColor=default;labelBackgroundColor=none;labelBorderColor=none;verticalAlign=middle;fontFamily=Tahoma;strokeColor=#CC6600;dashed=1;dashPattern=8 8;" parent="1" source="FROApq9FdC5uCxI3l32n-6" target="FROApq9FdC5uCxI3l32n-22" edge="1">
          <mxGeometry relative="1" as="geometry">
            <Array as="points">
              <mxPoint x="530" y="720" />
              <mxPoint x="640" y="720" />
              <mxPoint x="640" y="820" />
            </Array>
          </mxGeometry>
        </mxCell>
        <mxCell id="FROApq9FdC5uCxI3l32n-30" style="edgeStyle=orthogonalEdgeStyle;rounded=0;orthogonalLoop=1;jettySize=auto;html=1;entryX=1;entryY=0.25;entryDx=0;entryDy=0;entryPerimeter=0;align=center;fontStyle=1;fontColor=default;labelBackgroundColor=none;labelBorderColor=none;verticalAlign=middle;fontFamily=Tahoma;strokeColor=#CC6600;dashed=1;dashPattern=8 8;" parent="1" source="FROApq9FdC5uCxI3l32n-9" target="FROApq9FdC5uCxI3l32n-22" edge="1">
          <mxGeometry relative="1" as="geometry">
            <Array as="points">
              <mxPoint x="1170" y="720" />
              <mxPoint x="1080" y="720" />
              <mxPoint x="1080" y="820" />
            </Array>
          </mxGeometry>
        </mxCell>
        <mxCell id="FROApq9FdC5uCxI3l32n-31" style="edgeStyle=orthogonalEdgeStyle;rounded=0;orthogonalLoop=1;jettySize=auto;html=1;entryX=1;entryY=0.75;entryDx=0;entryDy=0;entryPerimeter=0;align=center;fontStyle=1;fontColor=default;labelBackgroundColor=none;labelBorderColor=none;verticalAlign=middle;fontFamily=Tahoma;strokeColor=#CC6600;dashed=1;dashPattern=8 8;" parent="1" source="FROApq9FdC5uCxI3l32n-10" target="FROApq9FdC5uCxI3l32n-22" edge="1">
          <mxGeometry relative="1" as="geometry">
            <Array as="points">
              <mxPoint x="1400" y="880" />
            </Array>
          </mxGeometry>
        </mxCell>
        <object placeholders="1" c4Name="API Pagamentos" c4Type="Component" c4Technology="API Mercado Pago" c4Description="Responsável por gerar e validar cobranças" label="&lt;font style=&quot;font-size: 16px&quot;&gt;&lt;span&gt;%c4Name%&lt;/span&gt;&lt;/font&gt;&lt;div&gt;[%c4Type%: %c4Technology%]&lt;/div&gt;&lt;br&gt;&lt;div&gt;&lt;font style=&quot;font-size: 11px&quot;&gt;%c4Description%&lt;/font&gt;&lt;/div&gt;" id="FROApq9FdC5uCxI3l32n-32">
          <mxCell style="rounded=1;whiteSpace=wrap;html=1;labelBackgroundColor=none;fillColor=#B3B3B3;fontColor=default;align=center;arcSize=6;strokeColor=#000000;metaEdit=1;resizable=0;points=[[0.25,0,0],[0.5,0,0],[0.75,0,0],[1,0.25,0],[1,0.5,0],[1,0.75,0],[0.75,1,0],[0.5,1,0],[0.25,1,0],[0,0.75,0],[0,0.5,0],[0,0.25,0]];dashed=1;dashPattern=12 12;fontStyle=1;labelBorderColor=none;verticalAlign=middle;fontFamily=Tahoma;" parent="1" vertex="1">
            <mxGeometry x="-130" y="330" width="240" height="120" as="geometry" />
          </mxCell>
        </object>
        <object placeholders="1" c4Name="API Envio de Email" c4Type="Component" c4Technology="API NodeMailer" c4Description="Responsável pelo o envio de e-mails aos usuarios para realizar 2FA" label="&lt;font style=&quot;font-size: 16px&quot;&gt;&lt;span&gt;%c4Name%&lt;/span&gt;&lt;/font&gt;&lt;div&gt;[%c4Type%: %c4Technology%]&lt;/div&gt;&lt;br&gt;&lt;div&gt;&lt;font style=&quot;font-size: 11px&quot;&gt;%c4Description%&lt;/font&gt;&lt;/div&gt;" id="FROApq9FdC5uCxI3l32n-33">
          <mxCell style="rounded=1;whiteSpace=wrap;html=1;labelBackgroundColor=none;fillColor=#B3B3B3;fontColor=default;align=center;arcSize=6;strokeColor=#000000;metaEdit=1;resizable=0;points=[[0.25,0,0],[0.5,0,0],[0.75,0,0],[1,0.25,0],[1,0.5,0],[1,0.75,0],[0.75,1,0],[0.5,1,0],[0.25,1,0],[0,0.75,0],[0,0.5,0],[0,0.25,0]];dashed=1;dashPattern=12 12;fontStyle=1;labelBorderColor=none;verticalAlign=middle;fontFamily=Tahoma;" parent="1" vertex="1">
            <mxGeometry x="1610" y="180" width="240" height="120" as="geometry" />
          </mxCell>
        </object>
        <object placeholders="1" c4Name="JIRA APPICLATION" c4Type="Component" c4Technology="API JIRA" c4Description="API Responsavel por abertura, classificações e gerenciamentos dos chamados" label="&lt;font style=&quot;font-size: 16px&quot;&gt;&lt;span&gt;%c4Name%&lt;/span&gt;&lt;/font&gt;&lt;div&gt;[%c4Type%: %c4Technology%]&lt;/div&gt;&lt;br&gt;&lt;div&gt;&lt;font style=&quot;font-size: 11px&quot;&gt;%c4Description%&lt;/font&gt;&lt;/div&gt;" id="FROApq9FdC5uCxI3l32n-36">
          <mxCell style="rounded=1;whiteSpace=wrap;html=1;labelBackgroundColor=none;fillColor=#B3B3B3;fontColor=default;align=center;arcSize=6;strokeColor=#000000;metaEdit=1;resizable=0;points=[[0.25,0,0],[0.5,0,0],[0.75,0,0],[1,0.25,0],[1,0.5,0],[1,0.75,0],[0.75,1,0],[0.5,1,0],[0.25,1,0],[0,0.75,0],[0,0.5,0],[0,0.25,0]];dashed=1;dashPattern=12 12;fontStyle=1;labelBorderColor=none;verticalAlign=middle;fontFamily=Tahoma;" parent="1" vertex="1">
            <mxGeometry x="-130" y="180" width="240" height="120" as="geometry" />
          </mxCell>
        </object>
        <object placeholders="1" c4Name="Api E-commerce" c4Type="Component" c4Technology="REST API" c4Description="Api usada para troca de pontos por produto" label="&lt;font style=&quot;font-size: 16px&quot;&gt;&lt;span&gt;%c4Name%&lt;/span&gt;&lt;/font&gt;&lt;div&gt;[%c4Type%: %c4Technology%]&lt;/div&gt;&lt;br&gt;&lt;div&gt;&lt;font style=&quot;font-size: 11px&quot;&gt;%c4Description%&lt;/font&gt;&lt;/div&gt;" id="FROApq9FdC5uCxI3l32n-37">
          <mxCell style="rounded=1;whiteSpace=wrap;html=1;labelBackgroundColor=none;fillColor=#B3B3B3;fontColor=default;align=center;arcSize=6;strokeColor=#000000;metaEdit=1;resizable=0;points=[[0.25,0,0],[0.5,0,0],[0.75,0,0],[1,0.25,0],[1,0.5,0],[1,0.75,0],[0.75,1,0],[0.5,1,0],[0.25,1,0],[0,0.75,0],[0,0.5,0],[0,0.25,0]];dashed=1;dashPattern=12 12;fontStyle=1;labelBorderColor=none;verticalAlign=middle;fontFamily=Tahoma;" parent="1" vertex="1">
            <mxGeometry x="730" y="-160" width="240" height="120" as="geometry" />
          </mxCell>
        </object>
        <object placeholders="1" c4Name="Google Cloud Text-to-Speech" c4Type="Component" c4Technology="API CLOUD" c4Description="Api externa que converte textos em JSON para um arquivo de aúdio." label="&lt;font style=&quot;font-size: 16px&quot;&gt;&lt;span&gt;%c4Name%&lt;/span&gt;&lt;/font&gt;&lt;div&gt;[%c4Type%: %c4Technology%]&lt;/div&gt;&lt;br&gt;&lt;div&gt;&lt;font style=&quot;font-size: 11px&quot;&gt;%c4Description%&lt;/font&gt;&lt;/div&gt;" id="FROApq9FdC5uCxI3l32n-38">
          <mxCell style="rounded=1;whiteSpace=wrap;html=1;labelBackgroundColor=none;fillColor=#B3B3B3;fontColor=default;align=center;arcSize=6;strokeColor=#000000;metaEdit=1;resizable=0;points=[[0.25,0,0],[0.5,0,0],[0.75,0,0],[1,0.25,0],[1,0.5,0],[1,0.75,0],[0.75,1,0],[0.5,1,0],[0.25,1,0],[0,0.75,0],[0,0.5,0],[0,0.25,0]];dashed=1;dashPattern=12 12;fontStyle=1;labelBorderColor=none;verticalAlign=middle;fontFamily=Tahoma;" parent="1" vertex="1">
            <mxGeometry x="1610" y="330" width="240" height="120" as="geometry" />
          </mxCell>
        </object>
        <mxCell id="x2Y0Ekb4y_YCDkYeXy8J-1" style="edgeStyle=orthogonalEdgeStyle;rounded=0;orthogonalLoop=1;jettySize=auto;html=1;entryX=0.5;entryY=1;entryDx=0;entryDy=0;entryPerimeter=0;fontFamily=Helvetica;fontSize=11;fontColor=#ffffff;labelBackgroundColor=none;resizable=0;" parent="1" source="FROApq9FdC5uCxI3l32n-2" target="FROApq9FdC5uCxI3l32n-37" edge="1">
          <mxGeometry relative="1" as="geometry" />
        </mxCell>
        <mxCell id="x2Y0Ekb4y_YCDkYeXy8J-7" style="edgeStyle=orthogonalEdgeStyle;rounded=0;orthogonalLoop=1;jettySize=auto;html=1;entryX=0;entryY=0.75;entryDx=0;entryDy=0;entryPerimeter=0;fontFamily=Helvetica;fontSize=11;fontColor=#ffffff;labelBackgroundColor=none;resizable=0;" parent="1" source="FROApq9FdC5uCxI3l32n-2" target="FROApq9FdC5uCxI3l32n-38" edge="1">
          <mxGeometry relative="1" as="geometry">
            <Array as="points">
              <mxPoint x="1440" y="300" />
              <mxPoint x="1440" y="420" />
            </Array>
          </mxGeometry>
        </mxCell>
        <mxCell id="x2Y0Ekb4y_YCDkYeXy8J-8" style="edgeStyle=orthogonalEdgeStyle;rounded=0;orthogonalLoop=1;jettySize=auto;html=1;entryX=0;entryY=0.25;entryDx=0;entryDy=0;entryPerimeter=0;fontFamily=Helvetica;fontSize=11;fontColor=#ffffff;labelBackgroundColor=none;resizable=0;" parent="1" source="FROApq9FdC5uCxI3l32n-2" target="FROApq9FdC5uCxI3l32n-33" edge="1">
          <mxGeometry relative="1" as="geometry">
            <Array as="points">
              <mxPoint x="1440" y="270" />
              <mxPoint x="1440" y="210" />
            </Array>
          </mxGeometry>
        </mxCell>
      </root>
    </mxGraphModel>
  </diagram>
  <diagram id="KetIXB1uo0zRDNfj_xEe" name="Componente_Fidelity">
    <mxGraphModel dx="1410" dy="2251" grid="1" gridSize="10" guides="1" tooltips="1" connect="1" arrows="1" fold="1" page="1" pageScale="1" pageWidth="1169" pageHeight="827" math="0" shadow="0">
      <root>
        <mxCell id="0" />
        <mxCell id="1" parent="0" />
        <object placeholders="1" c4Name="Park Water" c4Type="SystemScopeBoundary" c4Application="System Fidelity" label="&lt;font style=&quot;font-size: 16px&quot;&gt;&lt;b&gt;&lt;div style=&quot;text-align: left&quot;&gt;%c4Name%&lt;/div&gt;&lt;/b&gt;&lt;/font&gt;&lt;div style=&quot;text-align: left&quot;&gt;[%c4Application%]&lt;/div&gt;" id="XRJt-T9mpMpZ7nVA74T--2">
          <mxCell style="rounded=1;fontSize=11;whiteSpace=wrap;html=1;dashed=1;arcSize=20;fillColor=none;strokeColor=#666666;fontColor=#333333;labelBackgroundColor=none;align=left;verticalAlign=bottom;labelBorderColor=none;spacingTop=0;spacing=10;dashPattern=8 4;metaEdit=1;rotatable=0;perimeter=rectanglePerimeter;noLabel=0;labelPadding=0;allowArrows=0;connectable=0;expand=0;recursiveResize=0;editable=1;pointerEvents=0;absoluteArcSize=1;points=[[0.25,0,0],[0.5,0,0],[0.75,0,0],[1,0.25,0],[1,0.5,0],[1,0.75,0],[0.75,1,0],[0.5,1,0],[0.25,1,0],[0,0.75,0],[0,0.5,0],[0,0.25,0]];" vertex="1" parent="1">
            <mxGeometry x="360" y="-1210" width="600" height="580" as="geometry" />
          </mxCell>
        </object>
        <mxCell id="iepb8gpyqmtfWI8Q8oBA-6" style="edgeStyle=orthogonalEdgeStyle;rounded=0;orthogonalLoop=1;jettySize=auto;html=1;" edge="1" parent="1" source="U4rO-LHb8fOUwt76iFt2-15" target="iepb8gpyqmtfWI8Q8oBA-1">
          <mxGeometry relative="1" as="geometry" />
        </mxCell>
        <object placeholders="1" c4Name="Mobile" c4Type="Container" c4Technology="React" c4Description="Recebe o comando de acessibilidade do usuário e envia a requisição." label="&lt;font style=&quot;font-size: 16px&quot;&gt;&lt;b&gt;%c4Name%&lt;/b&gt;&lt;/font&gt;&lt;div&gt;[%c4Type%:&amp;nbsp;%c4Technology%]&lt;/div&gt;&lt;br&gt;&lt;div&gt;&lt;font style=&quot;font-size: 11px&quot;&gt;&lt;font color=&quot;#E6E6E6&quot;&gt;%c4Description%&lt;/font&gt;&lt;/div&gt;" id="U4rO-LHb8fOUwt76iFt2-15">
          <mxCell style="shape=mxgraph.c4.webBrowserContainer2;whiteSpace=wrap;html=1;boundedLbl=1;rounded=0;labelBackgroundColor=none;strokeColor=#118ACD;fillColor=#23A2D9;strokeColor=#118ACD;strokeColor2=#0E7DAD;fontSize=12;fontColor=#ffffff;align=center;metaEdit=1;points=[[0.5,0,0],[1,0.25,0],[1,0.5,0],[1,0.75,0],[0.5,1,0],[0,0.75,0],[0,0.5,0],[0,0.25,0]];resizable=0;" vertex="1" parent="1">
            <mxGeometry x="540" y="-1420" width="240" height="160" as="geometry" />
          </mxCell>
        </object>
        <object placeholders="1" c4Name="ProgramaFidelidade Controller" c4Type="Component" c4Technology="SpringBoot MVC Rest Controller" c4Description="Responsável por receber os dados de preferencia de acessibilidade do usuário, e enviar para api externa de resgate e atribuição de pontos" label="&lt;font style=&quot;font-size: 16px&quot;&gt;&lt;b&gt;%c4Name%&lt;/b&gt;&lt;/font&gt;&lt;div&gt;[%c4Type%: %c4Technology%]&lt;/div&gt;&lt;br&gt;&lt;div&gt;&lt;font style=&quot;font-size: 11px&quot;&gt;&lt;font color=&quot;#E6E6E6&quot;&gt;%c4Description%&lt;/font&gt;&lt;/div&gt;" id="7GuVp_k9549uLQzYZQOD-1">
          <mxCell style="rounded=1;whiteSpace=wrap;html=1;fontSize=11;labelBackgroundColor=none;fillColor=#23A2D9;fontColor=#ffffff;align=center;arcSize=10;strokeColor=#0E7DAD;metaEdit=1;resizable=0;points=[[0.25,0,0],[0.5,0,0],[0.75,0,0],[1,0.25,0],[1,0.5,0],[1,0.75,0],[0.75,1,0],[0.5,1,0],[0.25,1,0],[0,0.75,0],[0,0.5,0],[0,0.25,0]];" vertex="1" parent="1">
            <mxGeometry x="540" y="-1020" width="240" height="120" as="geometry" />
          </mxCell>
        </object>
        <mxCell id="iepb8gpyqmtfWI8Q8oBA-7" style="edgeStyle=orthogonalEdgeStyle;rounded=0;orthogonalLoop=1;jettySize=auto;html=1;" edge="1" parent="1" source="iepb8gpyqmtfWI8Q8oBA-1" target="7GuVp_k9549uLQzYZQOD-1">
          <mxGeometry relative="1" as="geometry" />
        </mxCell>
        <object placeholders="1" c4Name="API Gateway" c4Type="Component" c4Technology="Apigee" c4Description="Responsável por centralizar rqueisições em APIs" label="&lt;font style=&quot;font-size: 16px&quot;&gt;&lt;b&gt;%c4Name%&lt;/b&gt;&lt;/font&gt;&lt;div&gt;[%c4Type%: %c4Technology%]&lt;/div&gt;&lt;br&gt;&lt;div&gt;&lt;font style=&quot;font-size: 11px&quot;&gt;&lt;font color=&quot;#E6E6E6&quot;&gt;%c4Description%&lt;/font&gt;&lt;/div&gt;" id="iepb8gpyqmtfWI8Q8oBA-1">
          <mxCell style="rounded=1;whiteSpace=wrap;html=1;fontSize=11;labelBackgroundColor=none;fillColor=#23A2D9;fontColor=#ffffff;align=center;arcSize=10;strokeColor=#0E7DAD;metaEdit=1;resizable=0;points=[[0.25,0,0],[0.5,0,0],[0.75,0,0],[1,0.25,0],[1,0.5,0],[1,0.75,0],[0.75,1,0],[0.5,1,0],[0.25,1,0],[0,0.75,0],[0,0.5,0],[0,0.25,0]];" vertex="1" parent="1">
            <mxGeometry x="540" y="-1190" width="240" height="120" as="geometry" />
          </mxCell>
        </object>
        <mxCell id="iepb8gpyqmtfWI8Q8oBA-11" style="edgeStyle=orthogonalEdgeStyle;rounded=0;orthogonalLoop=1;jettySize=auto;html=1;" edge="1" parent="1" source="iepb8gpyqmtfWI8Q8oBA-2" target="iepb8gpyqmtfWI8Q8oBA-10">
          <mxGeometry relative="1" as="geometry" />
        </mxCell>
        <object placeholders="1" c4Name="API Gateway" c4Type="Component" c4Technology="Apigee" c4Description="Responsável por fazer requisições em APIs externas" label="&lt;font style=&quot;font-size: 16px&quot;&gt;&lt;b&gt;%c4Name%&lt;/b&gt;&lt;/font&gt;&lt;div&gt;[%c4Type%: %c4Technology%]&lt;/div&gt;&lt;br&gt;&lt;div&gt;&lt;font style=&quot;font-size: 11px&quot;&gt;&lt;font color=&quot;#E6E6E6&quot;&gt;%c4Description%&lt;/font&gt;&lt;/div&gt;" id="iepb8gpyqmtfWI8Q8oBA-2">
          <mxCell style="rounded=1;whiteSpace=wrap;html=1;fontSize=11;labelBackgroundColor=none;fillColor=#23A2D9;fontColor=#ffffff;align=center;arcSize=10;strokeColor=#0E7DAD;metaEdit=1;resizable=0;points=[[0.25,0,0],[0.5,0,0],[0.75,0,0],[1,0.25,0],[1,0.5,0],[1,0.75,0],[0.75,1,0],[0.5,1,0],[0.25,1,0],[0,0.75,0],[0,0.5,0],[0,0.25,0]];" vertex="1" parent="1">
            <mxGeometry x="400" y="-860" width="240" height="120" as="geometry" />
          </mxCell>
        </object>
        <mxCell id="iepb8gpyqmtfWI8Q8oBA-5" style="edgeStyle=orthogonalEdgeStyle;rounded=0;orthogonalLoop=1;jettySize=auto;html=1;" edge="1" parent="1" source="iepb8gpyqmtfWI8Q8oBA-3" target="iepb8gpyqmtfWI8Q8oBA-4">
          <mxGeometry relative="1" as="geometry" />
        </mxCell>
        <object placeholders="1" c4Name="ORM" c4Type="Component" c4Technology="JPA" c4Description="Componente que gerencia as conexões e transações com o banco de dados" label="&lt;font style=&quot;font-size: 16px&quot;&gt;&lt;b&gt;%c4Name%&lt;/b&gt;&lt;/font&gt;&lt;div&gt;[%c4Type%: %c4Technology%]&lt;/div&gt;&lt;br&gt;&lt;div&gt;&lt;font style=&quot;font-size: 11px&quot;&gt;&lt;font color=&quot;#E6E6E6&quot;&gt;%c4Description%&lt;/font&gt;&lt;/div&gt;" id="iepb8gpyqmtfWI8Q8oBA-3">
          <mxCell style="rounded=1;whiteSpace=wrap;html=1;fontSize=11;labelBackgroundColor=none;fillColor=#23A2D9;fontColor=#ffffff;align=center;arcSize=10;strokeColor=#0E7DAD;metaEdit=1;resizable=0;points=[[0.25,0,0],[0.5,0,0],[0.75,0,0],[1,0.25,0],[1,0.5,0],[1,0.75,0],[0.75,1,0],[0.5,1,0],[0.25,1,0],[0,0.75,0],[0,0.5,0],[0,0.25,0]];" vertex="1" parent="1">
            <mxGeometry x="670" y="-860" width="240" height="120" as="geometry" />
          </mxCell>
        </object>
        <object placeholders="1" c4Name="Banco de Dados" c4Type="Container" c4Technology="MySQL" c4Description="Armazenamento de preferências de acessibilidade do usuário (tamanho da fonte, contraste, idioma preferido de legendas)." label="&lt;font style=&quot;font-size: 16px&quot;&gt;&lt;b&gt;%c4Name%&lt;/b&gt;&lt;/font&gt;&lt;div&gt;[%c4Type%:&amp;nbsp;%c4Technology%]&lt;/div&gt;&lt;br&gt;&lt;div&gt;&lt;font style=&quot;font-size: 10px&quot;&gt;&lt;font color=&quot;#E6E6E6&quot;&gt;%c4Description%&lt;/font&gt;&lt;/div&gt;" id="iepb8gpyqmtfWI8Q8oBA-4">
          <mxCell style="shape=cylinder3;size=15;whiteSpace=wrap;html=1;boundedLbl=1;rounded=0;labelBackgroundColor=none;fontSize=12;align=center;metaEdit=1;points=[[0.5,0,0],[1,0.25,0],[1,0.5,0],[1,0.75,0],[0.5,1,0],[0,0.75,0],[0,0.5,0],[0,0.25,0]];resizable=0;fillColor=#999999;fontColor=#ffffff;strokeColor=#314354;" vertex="1" parent="1">
            <mxGeometry x="670" y="-620" width="240" height="120" as="geometry" />
          </mxCell>
        </object>
        <mxCell id="iepb8gpyqmtfWI8Q8oBA-8" style="edgeStyle=orthogonalEdgeStyle;rounded=0;orthogonalLoop=1;jettySize=auto;html=1;entryX=0.25;entryY=0;entryDx=0;entryDy=0;entryPerimeter=0;" edge="1" parent="1" source="7GuVp_k9549uLQzYZQOD-1" target="iepb8gpyqmtfWI8Q8oBA-2">
          <mxGeometry relative="1" as="geometry">
            <Array as="points">
              <mxPoint x="460" y="-960" />
            </Array>
          </mxGeometry>
        </mxCell>
        <mxCell id="iepb8gpyqmtfWI8Q8oBA-9" style="edgeStyle=orthogonalEdgeStyle;rounded=0;orthogonalLoop=1;jettySize=auto;html=1;entryX=0.75;entryY=0;entryDx=0;entryDy=0;entryPerimeter=0;" edge="1" parent="1" source="7GuVp_k9549uLQzYZQOD-1" target="iepb8gpyqmtfWI8Q8oBA-3">
          <mxGeometry relative="1" as="geometry">
            <Array as="points">
              <mxPoint x="850" y="-960" />
            </Array>
          </mxGeometry>
        </mxCell>
        <object placeholders="1" c4Name="API E-commecer" c4Type="Component" c4Technology="API E-commecer" c4Description="Troca de pontos por produto" label="&lt;font style=&quot;font-size: 16px&quot;&gt;&lt;b&gt;%c4Name%&lt;/b&gt;&lt;/font&gt;&lt;div&gt;[%c4Type%: %c4Technology%]&lt;/div&gt;&lt;br&gt;&lt;div&gt;&lt;font style=&quot;font-size: 11px&quot;&gt;%c4Description%&lt;/font&gt;&lt;/div&gt;" id="iepb8gpyqmtfWI8Q8oBA-10">
          <mxCell style="rounded=1;whiteSpace=wrap;html=1;labelBackgroundColor=none;fillColor=#CCCCCC;fontColor=#000000;align=center;arcSize=6;strokeColor=#000000;metaEdit=1;resizable=0;points=[[0.25,0,0],[0.5,0,0],[0.75,0,0],[1,0.25,0],[1,0.5,0],[1,0.75,0],[0.75,1,0],[0.5,1,0],[0.25,1,0],[0,0.75,0],[0,0.5,0],[0,0.25,0]];dashed=1;dashPattern=12 12;" vertex="1" parent="1">
            <mxGeometry x="60" y="-860" width="240" height="120" as="geometry" />
          </mxCell>
        </object>
      </root>
    </mxGraphModel>
  </diagram>
  <diagram id="2DIUEvfXrKmCkP5dFCrz" name="Componente_Pagament/Security">
    <mxGraphModel dx="1463" dy="746" grid="1" gridSize="10" guides="1" tooltips="1" connect="1" arrows="1" fold="1" page="1" pageScale="1" pageWidth="1169" pageHeight="827" math="0" shadow="0">
      <root>
        <mxCell id="0" />
        <mxCell id="1" parent="0" />
        <object placeholders="1" c4Name="API Envio de Email" c4Type="Component" c4Technology="API NodeMailer" c4Description="Responsável pelo o envio de e-mails aos usuarios para realizar 2FA" label="&lt;font style=&quot;font-size: 16px&quot;&gt;&lt;b&gt;%c4Name%&lt;/b&gt;&lt;/font&gt;&lt;div&gt;[%c4Type%: %c4Technology%]&lt;/div&gt;&lt;br&gt;&lt;div&gt;&lt;font style=&quot;font-size: 11px&quot;&gt;%c4Description%&lt;/font&gt;&lt;/div&gt;" id="U1p80kELxtmxsrURPvmE-11">
          <mxCell style="rounded=1;whiteSpace=wrap;html=1;labelBackgroundColor=none;fillColor=#CCCCCC;fontColor=#000000;align=center;arcSize=6;strokeColor=#000000;metaEdit=1;resizable=0;points=[[0.25,0,0],[0.5,0,0],[0.75,0,0],[1,0.25,0],[1,0.5,0],[1,0.75,0],[0.75,1,0],[0.5,1,0],[0.25,1,0],[0,0.75,0],[0,0.5,0],[0,0.25,0]];dashed=1;dashPattern=12 12;" vertex="1" parent="1">
            <mxGeometry x="150" y="1035" width="240" height="120" as="geometry" />
          </mxCell>
        </object>
        <object placeholders="1" c4Name="Park Water" c4Type="SystemScopeBoundary" c4Application="System Pagament/Security" label="&lt;font style=&quot;font-size: 16px&quot;&gt;&lt;b&gt;&lt;div style=&quot;text-align: left&quot;&gt;%c4Name%&lt;/div&gt;&lt;/b&gt;&lt;/font&gt;&lt;div style=&quot;text-align: left&quot;&gt;[%c4Application%]&lt;/div&gt;" id="jBQh-sKmHGwBlqoEhX-0-1">
          <mxCell style="rounded=1;fontSize=11;whiteSpace=wrap;html=1;dashed=1;arcSize=20;fillColor=none;strokeColor=#666666;fontColor=#333333;labelBackgroundColor=none;align=left;verticalAlign=bottom;labelBorderColor=none;spacingTop=0;spacing=10;dashPattern=8 4;metaEdit=1;rotatable=0;perimeter=rectanglePerimeter;noLabel=0;labelPadding=0;allowArrows=0;connectable=0;expand=0;recursiveResize=0;editable=1;pointerEvents=0;absoluteArcSize=1;points=[[0.25,0,0],[0.5,0,0],[0.75,0,0],[1,0.25,0],[1,0.5,0],[1,0.75,0],[0.75,1,0],[0.5,1,0],[0.25,1,0],[0,0.75,0],[0,0.5,0],[0,0.25,0]];" vertex="1" parent="1">
            <mxGeometry x="440" y="855" width="1260" height="480" as="geometry" />
          </mxCell>
        </object>
        <mxCell id="9ny-V0w-Fk8G204mLLUt-10" value="" style="edgeStyle=orthogonalEdgeStyle;rounded=0;orthogonalLoop=1;jettySize=auto;html=1;" edge="1" parent="1" source="jBQh-sKmHGwBlqoEhX-0-3" target="9ny-V0w-Fk8G204mLLUt-1">
          <mxGeometry relative="1" as="geometry" />
        </mxCell>
        <object placeholders="1" c4Name="API Gateway" c4Type="Component" c4Technology="SpringBoot MVC Rest Controller" c4Description="Responsável por centralizar rqueisições em APIs" label="&lt;font style=&quot;font-size: 16px&quot;&gt;&lt;b&gt;%c4Name%&lt;/b&gt;&lt;/font&gt;&lt;div&gt;[%c4Type%: %c4Technology%]&lt;/div&gt;&lt;br&gt;&lt;div&gt;&lt;font style=&quot;font-size: 11px&quot;&gt;&lt;font color=&quot;#E6E6E6&quot;&gt;%c4Description%&lt;/font&gt;&lt;/div&gt;" id="jBQh-sKmHGwBlqoEhX-0-3">
          <mxCell style="rounded=1;whiteSpace=wrap;html=1;fontSize=11;labelBackgroundColor=none;fillColor=#23A2D9;fontColor=#ffffff;align=center;arcSize=10;strokeColor=#0E7DAD;metaEdit=1;resizable=0;points=[[0.25,0,0],[0.5,0,0],[0.75,0,0],[1,0.25,0],[1,0.5,0],[1,0.75,0],[0.75,1,0],[0.5,1,0],[0.25,1,0],[0,0.75,0],[0,0.5,0],[0,0.25,0]];" vertex="1" parent="1">
            <mxGeometry x="480" y="895" width="240" height="120" as="geometry" />
          </mxCell>
        </object>
        <mxCell id="jBQh-sKmHGwBlqoEhX-0-4" style="edgeStyle=orthogonalEdgeStyle;rounded=0;orthogonalLoop=1;jettySize=auto;html=1;" edge="1" parent="1" source="jBQh-sKmHGwBlqoEhX-0-5" target="jBQh-sKmHGwBlqoEhX-0-3">
          <mxGeometry relative="1" as="geometry" />
        </mxCell>
        <mxCell id="9ny-V0w-Fk8G204mLLUt-12" style="edgeStyle=orthogonalEdgeStyle;rounded=0;orthogonalLoop=1;jettySize=auto;html=1;" edge="1" parent="1" source="jBQh-sKmHGwBlqoEhX-0-5" target="9ny-V0w-Fk8G204mLLUt-9">
          <mxGeometry relative="1" as="geometry" />
        </mxCell>
        <object placeholders="1" c4Name="Mobile" c4Type="Container" c4Technology="React" c4Description="Recebe o comando de acessibilidade do usuário e envia a requisição." label="&lt;font style=&quot;font-size: 16px&quot;&gt;&lt;b&gt;%c4Name%&lt;/b&gt;&lt;/font&gt;&lt;div&gt;[%c4Type%:&amp;nbsp;%c4Technology%]&lt;/div&gt;&lt;br&gt;&lt;div&gt;&lt;font style=&quot;font-size: 11px&quot;&gt;&lt;font color=&quot;#E6E6E6&quot;&gt;%c4Description%&lt;/font&gt;&lt;/div&gt;" id="jBQh-sKmHGwBlqoEhX-0-5">
          <mxCell style="shape=mxgraph.c4.webBrowserContainer2;whiteSpace=wrap;html=1;boundedLbl=1;rounded=0;labelBackgroundColor=none;strokeColor=#118ACD;fillColor=#23A2D9;strokeColor=#118ACD;strokeColor2=#0E7DAD;fontSize=12;fontColor=#ffffff;align=center;metaEdit=1;points=[[0.5,0,0],[1,0.25,0],[1,0.5,0],[1,0.75,0],[0.5,1,0],[0,0.75,0],[0,0.5,0],[0,0.25,0]];resizable=0;" vertex="1" parent="1">
            <mxGeometry x="600" y="620" width="240" height="160" as="geometry" />
          </mxCell>
        </object>
        <mxCell id="jBQh-sKmHGwBlqoEhX-0-9" style="edgeStyle=orthogonalEdgeStyle;rounded=0;orthogonalLoop=1;jettySize=auto;html=1;" edge="1" parent="1" source="jBQh-sKmHGwBlqoEhX-0-10" target="jBQh-sKmHGwBlqoEhX-0-11">
          <mxGeometry relative="1" as="geometry" />
        </mxCell>
        <object placeholders="1" c4Name="ORM" c4Type="Component" c4Technology="JPA" c4Description="Componente que gerencia as conexões e transações com o banco de dados" label="&lt;font style=&quot;font-size: 16px&quot;&gt;&lt;b&gt;%c4Name%&lt;/b&gt;&lt;/font&gt;&lt;div&gt;[%c4Type%: %c4Technology%]&lt;/div&gt;&lt;br&gt;&lt;div&gt;&lt;font style=&quot;font-size: 11px&quot;&gt;&lt;font color=&quot;#E6E6E6&quot;&gt;%c4Description%&lt;/font&gt;&lt;/div&gt;" id="jBQh-sKmHGwBlqoEhX-0-10">
          <mxCell style="rounded=1;whiteSpace=wrap;html=1;fontSize=11;labelBackgroundColor=none;fillColor=#23A2D9;fontColor=#ffffff;align=center;arcSize=10;strokeColor=#0E7DAD;metaEdit=1;resizable=0;points=[[0.25,0,0],[0.5,0,0],[0.75,0,0],[1,0.25,0],[1,0.5,0],[1,0.75,0],[0.75,1,0],[0.5,1,0],[0.25,1,0],[0,0.75,0],[0,0.5,0],[0,0.25,0]];" vertex="1" parent="1">
            <mxGeometry x="840" y="1140" width="240" height="120" as="geometry" />
          </mxCell>
        </object>
        <object placeholders="1" c4Name="Banco de Dados" c4Type="Container" c4Technology="MySQL" c4Description="Armazenamento de preferências de acessibilidade do usuário (tamanho da fonte, contraste, idioma preferido de legendas)." label="&lt;font style=&quot;font-size: 16px&quot;&gt;&lt;b&gt;%c4Name%&lt;/b&gt;&lt;/font&gt;&lt;div&gt;[%c4Type%:&amp;nbsp;%c4Technology%]&lt;/div&gt;&lt;br&gt;&lt;div&gt;&lt;font style=&quot;font-size: 10px&quot;&gt;&lt;font color=&quot;#E6E6E6&quot;&gt;%c4Description%&lt;/font&gt;&lt;/div&gt;" id="jBQh-sKmHGwBlqoEhX-0-11">
          <mxCell style="shape=cylinder3;size=15;whiteSpace=wrap;html=1;boundedLbl=1;rounded=0;labelBackgroundColor=none;fontSize=12;align=center;metaEdit=1;points=[[0.5,0,0],[1,0.25,0],[1,0.5,0],[1,0.75,0],[0.5,1,0],[0,0.75,0],[0,0.5,0],[0,0.25,0]];resizable=0;fillColor=#999999;fontColor=#ffffff;strokeColor=#314354;" vertex="1" parent="1">
            <mxGeometry x="600" y="1385" width="240" height="120" as="geometry" />
          </mxCell>
        </object>
        <mxCell id="Wz-AXUhgEaSK9OCavAE_-5" style="edgeStyle=orthogonalEdgeStyle;rounded=0;orthogonalLoop=1;jettySize=auto;html=1;" edge="1" parent="1" source="jBQh-sKmHGwBlqoEhX-0-13" target="x1S2830NUxOPscMO8IqZ-2">
          <mxGeometry relative="1" as="geometry" />
        </mxCell>
        <object placeholders="1" c4Name="API Gateway" c4Type="Component" c4Technology="SpringBoot MVC Rest Controller" c4Description="Responsável por fazer requisições em APIs externas" label="&lt;font style=&quot;font-size: 16px&quot;&gt;&lt;b&gt;%c4Name%&lt;/b&gt;&lt;/font&gt;&lt;div&gt;[%c4Type%: %c4Technology%]&lt;/div&gt;&lt;br&gt;&lt;div&gt;&lt;font style=&quot;font-size: 11px&quot;&gt;&lt;font color=&quot;#E6E6E6&quot;&gt;%c4Description%&lt;/font&gt;&lt;/div&gt;" id="jBQh-sKmHGwBlqoEhX-0-13">
          <mxCell style="rounded=1;whiteSpace=wrap;html=1;fontSize=11;labelBackgroundColor=none;fillColor=#23A2D9;fontColor=#ffffff;align=center;arcSize=10;strokeColor=#0E7DAD;metaEdit=1;resizable=0;points=[[0.25,0,0],[0.5,0,0],[0.75,0,0],[1,0.25,0],[1,0.5,0],[1,0.75,0],[0.75,1,0],[0.5,1,0],[0.25,1,0],[0,0.75,0],[0,0.5,0],[0,0.25,0]];" vertex="1" parent="1">
            <mxGeometry x="1400" y="895" width="240" height="120" as="geometry" />
          </mxCell>
        </object>
        <mxCell id="Wz-AXUhgEaSK9OCavAE_-2" style="edgeStyle=orthogonalEdgeStyle;rounded=0;orthogonalLoop=1;jettySize=auto;html=1;" edge="1" parent="1" source="9ny-V0w-Fk8G204mLLUt-1" target="jBQh-sKmHGwBlqoEhX-0-10">
          <mxGeometry relative="1" as="geometry">
            <Array as="points">
              <mxPoint x="960" y="1090" />
              <mxPoint x="960" y="1090" />
            </Array>
          </mxGeometry>
        </mxCell>
        <object placeholders="1" c4Name="Login Controller" c4Type="Component" c4Technology="SpringBoot MVC Rest Controller" c4Description="Responsável por receber os dados de preferencia de acessibilidade do usuário, e enviar para api externa de cadastro e login do usuario" label="&lt;font style=&quot;font-size: 16px&quot;&gt;&lt;b&gt;%c4Name%&lt;/b&gt;&lt;/font&gt;&lt;div&gt;[%c4Type%: %c4Technology%]&lt;/div&gt;&lt;br&gt;&lt;div&gt;&lt;font style=&quot;font-size: 11px&quot;&gt;&lt;font color=&quot;#E6E6E6&quot;&gt;%c4Description%&lt;/font&gt;&lt;/div&gt;" id="9ny-V0w-Fk8G204mLLUt-1">
          <mxCell style="rounded=1;whiteSpace=wrap;html=1;fontSize=11;labelBackgroundColor=none;fillColor=#23A2D9;fontColor=#ffffff;align=center;arcSize=10;strokeColor=#0E7DAD;metaEdit=1;resizable=0;points=[[0.25,0,0],[0.5,0,0],[0.75,0,0],[1,0.25,0],[1,0.5,0],[1,0.75,0],[0.75,1,0],[0.5,1,0],[0.25,1,0],[0,0.75,0],[0,0.5,0],[0,0.25,0]];" vertex="1" parent="1">
            <mxGeometry x="805" y="895" width="240" height="120" as="geometry" />
          </mxCell>
        </object>
        <mxCell id="Wz-AXUhgEaSK9OCavAE_-3" style="edgeStyle=orthogonalEdgeStyle;rounded=0;orthogonalLoop=1;jettySize=auto;html=1;" edge="1" parent="1" source="9ny-V0w-Fk8G204mLLUt-9" target="jBQh-sKmHGwBlqoEhX-0-10">
          <mxGeometry relative="1" as="geometry">
            <Array as="points">
              <mxPoint x="1150" y="1210" />
            </Array>
          </mxGeometry>
        </mxCell>
        <mxCell id="Wz-AXUhgEaSK9OCavAE_-4" style="edgeStyle=orthogonalEdgeStyle;rounded=0;orthogonalLoop=1;jettySize=auto;html=1;" edge="1" parent="1" source="9ny-V0w-Fk8G204mLLUt-9" target="jBQh-sKmHGwBlqoEhX-0-13">
          <mxGeometry relative="1" as="geometry" />
        </mxCell>
        <object placeholders="1" c4Name="Pagamento Controller" c4Type="Container" c4Technology="Spring&#xa;MVC Rest Controller" c4Description="Responsável por receber os dados de preferencia de acessibilidade do usuário, e enviar para api externa de pagamento do usuario" label="&lt;font style=&quot;font-size: 16px&quot;&gt;&lt;b&gt;%c4Name%&lt;/b&gt;&lt;/font&gt;&lt;div&gt;[%c4Type%: %c4Technology%]&lt;/div&gt;&lt;br&gt;&lt;div&gt;&lt;font style=&quot;font-size: 11px&quot;&gt;&lt;font color=&quot;#E6E6E6&quot;&gt;%c4Description%&lt;/font&gt;&lt;/div&gt;" id="9ny-V0w-Fk8G204mLLUt-9">
          <mxCell style="rounded=1;whiteSpace=wrap;html=1;fontSize=11;labelBackgroundColor=none;fillColor=#23A2D9;fontColor=#ffffff;align=center;arcSize=10;strokeColor=#0E7DAD;metaEdit=1;resizable=0;points=[[0.25,0,0],[0.5,0,0],[0.75,0,0],[1,0.25,0],[1,0.5,0],[1,0.75,0],[0.75,1,0],[0.5,1,0],[0.25,1,0],[0,0.75,0],[0,0.5,0],[0,0.25,0]];" vertex="1" parent="1">
            <mxGeometry x="1100" y="895" width="240" height="120" as="geometry" />
          </mxCell>
        </object>
        <mxCell id="9ny-V0w-Fk8G204mLLUt-11" style="edgeStyle=orthogonalEdgeStyle;rounded=0;orthogonalLoop=1;jettySize=auto;html=1;entryX=0;entryY=0.5;entryDx=0;entryDy=0;entryPerimeter=0;" edge="1" parent="1" source="9ny-V0w-Fk8G204mLLUt-1" target="9ny-V0w-Fk8G204mLLUt-9">
          <mxGeometry relative="1" as="geometry" />
        </mxCell>
        <object placeholders="1" c4Name="API Pagamentos" c4Type="Component" c4Technology="API Mercado Pago" c4Description="Responsável por gerar e validar cobranças" label="&lt;font style=&quot;font-size: 16px&quot;&gt;&lt;b&gt;%c4Name%&lt;/b&gt;&lt;/font&gt;&lt;div&gt;[%c4Type%: %c4Technology%]&lt;/div&gt;&lt;br&gt;&lt;div&gt;&lt;font style=&quot;font-size: 11px&quot;&gt;%c4Description%&lt;/font&gt;&lt;/div&gt;" id="x1S2830NUxOPscMO8IqZ-2">
          <mxCell style="rounded=1;whiteSpace=wrap;html=1;labelBackgroundColor=none;fillColor=#CCCCCC;fontColor=#000000;align=center;arcSize=6;strokeColor=#000000;metaEdit=1;resizable=0;points=[[0.25,0,0],[0.5,0,0],[0.75,0,0],[1,0.25,0],[1,0.5,0],[1,0.75,0],[0.75,1,0],[0.5,1,0],[0.25,1,0],[0,0.75,0],[0,0.5,0],[0,0.25,0]];dashed=1;dashPattern=12 12;" vertex="1" parent="1">
            <mxGeometry x="1770" y="895" width="240" height="120" as="geometry" />
          </mxCell>
        </object>
        <object placeholders="1" c4Name="API Pagamentos" c4Type="Component" c4Technology="API Mercado Pago" c4Description="Responsável por gerar e validar cobranças" label="&lt;font style=&quot;font-size: 16px&quot;&gt;&lt;b&gt;%c4Name%&lt;/b&gt;&lt;/font&gt;&lt;div&gt;[%c4Type%: %c4Technology%]&lt;/div&gt;&lt;br&gt;&lt;div&gt;&lt;font style=&quot;font-size: 11px&quot;&gt;%c4Description%&lt;/font&gt;&lt;/div&gt;" id="Wz-AXUhgEaSK9OCavAE_-6">
          <mxCell style="rounded=1;whiteSpace=wrap;html=1;labelBackgroundColor=none;fillColor=#CCCCCC;fontColor=#000000;align=center;arcSize=6;strokeColor=#000000;metaEdit=1;resizable=0;points=[[0.25,0,0],[0.5,0,0],[0.75,0,0],[1,0.25,0],[1,0.5,0],[1,0.75,0],[0.75,1,0],[0.5,1,0],[0.25,1,0],[0,0.75,0],[0,0.5,0],[0,0.25,0]];dashed=1;dashPattern=12 12;" vertex="1" parent="1">
            <mxGeometry x="1780" y="905" width="240" height="120" as="geometry" />
          </mxCell>
        </object>
        <object placeholders="1" c4Name="API Gateway" c4Type="Component" c4Technology="SpringBoot MVC Rest Controller" c4Description="Responsável por fazer requisições em APIs externas" label="&lt;font style=&quot;font-size: 16px&quot;&gt;&lt;b&gt;%c4Name%&lt;/b&gt;&lt;/font&gt;&lt;div&gt;[%c4Type%: %c4Technology%]&lt;/div&gt;&lt;br&gt;&lt;div&gt;&lt;font style=&quot;font-size: 11px&quot;&gt;&lt;font color=&quot;#E6E6E6&quot;&gt;%c4Description%&lt;/font&gt;&lt;/div&gt;" id="Wz-AXUhgEaSK9OCavAE_-8">
          <mxCell style="rounded=1;whiteSpace=wrap;html=1;fontSize=11;labelBackgroundColor=none;fillColor=#23A2D9;fontColor=#ffffff;align=center;arcSize=10;strokeColor=#0E7DAD;metaEdit=1;resizable=0;points=[[0.25,0,0],[0.5,0,0],[0.75,0,0],[1,0.25,0],[1,0.5,0],[1,0.75,0],[0.75,1,0],[0.5,1,0],[0.25,1,0],[0,0.75,0],[0,0.5,0],[0,0.25,0]];" vertex="1" parent="1">
            <mxGeometry x="480" y="1035" width="240" height="120" as="geometry" />
          </mxCell>
        </object>
        <mxCell id="Wz-AXUhgEaSK9OCavAE_-9" style="edgeStyle=orthogonalEdgeStyle;rounded=0;orthogonalLoop=1;jettySize=auto;html=1;entryX=1;entryY=0.5;entryDx=0;entryDy=0;entryPerimeter=0;" edge="1" parent="1" source="9ny-V0w-Fk8G204mLLUt-1" target="Wz-AXUhgEaSK9OCavAE_-8">
          <mxGeometry relative="1" as="geometry">
            <Array as="points">
              <mxPoint x="840" y="1095" />
            </Array>
          </mxGeometry>
        </mxCell>
        <mxCell id="Wz-AXUhgEaSK9OCavAE_-10" style="edgeStyle=orthogonalEdgeStyle;rounded=0;orthogonalLoop=1;jettySize=auto;html=1;entryX=1;entryY=0.5;entryDx=0;entryDy=0;entryPerimeter=0;" edge="1" parent="1" source="Wz-AXUhgEaSK9OCavAE_-8" target="U1p80kELxtmxsrURPvmE-11">
          <mxGeometry relative="1" as="geometry" />
        </mxCell>
      </root>
    </mxGraphModel>
  </diagram>
  <diagram id="sDu0g1XNvJ4eigbtCyUN" name="Componente_Support">
    <mxGraphModel dx="1410" dy="1424" grid="1" gridSize="10" guides="1" tooltips="1" connect="1" arrows="1" fold="1" page="1" pageScale="1" pageWidth="1169" pageHeight="827" math="0" shadow="0">
      <root>
        <mxCell id="0" />
        <mxCell id="1" parent="0" />
        <object placeholders="1" c4Name="Park Water" c4Type="SystemScopeBoundary" c4Application="System Support" label="&lt;font style=&quot;font-size: 16px&quot;&gt;&lt;b&gt;&lt;div style=&quot;text-align: left&quot;&gt;%c4Name%&lt;/div&gt;&lt;/b&gt;&lt;/font&gt;&lt;div style=&quot;text-align: left&quot;&gt;[%c4Application%]&lt;/div&gt;" id="qm0_lHSxKUtBBBnG5JwH-2">
          <mxCell style="rounded=1;fontSize=11;whiteSpace=wrap;html=1;dashed=1;arcSize=20;fillColor=none;strokeColor=#666666;fontColor=#333333;labelBackgroundColor=none;align=left;verticalAlign=bottom;labelBorderColor=none;spacingTop=0;spacing=10;dashPattern=8 4;metaEdit=1;rotatable=0;perimeter=rectanglePerimeter;noLabel=0;labelPadding=0;allowArrows=0;connectable=0;expand=0;recursiveResize=0;editable=1;pointerEvents=0;absoluteArcSize=1;points=[[0.25,0,0],[0.5,0,0],[0.75,0,0],[1,0.25,0],[1,0.5,0],[1,0.75,0],[0.75,1,0],[0.5,1,0],[0.25,1,0],[0,0.75,0],[0,0.5,0],[0,0.25,0]];" parent="1" vertex="1">
            <mxGeometry x="180" y="100" width="970" height="480" as="geometry" />
          </mxCell>
        </object>
        <mxCell id="s19MXonuL2efLYlHZdm--2" style="edgeStyle=orthogonalEdgeStyle;rounded=0;orthogonalLoop=1;jettySize=auto;html=1;" edge="1" parent="1" source="Wm8hpZQMGMew1f8nQcQY-15" target="Wm8hpZQMGMew1f8nQcQY-18">
          <mxGeometry relative="1" as="geometry" />
        </mxCell>
        <object placeholders="1" c4Name="API Gateway" c4Type="Component" c4Technology="Apigee" c4Description="Responsável por centralizar rqueisições em APIs" label="&lt;font style=&quot;font-size: 16px&quot;&gt;&lt;b&gt;%c4Name%&lt;/b&gt;&lt;/font&gt;&lt;div&gt;[%c4Type%: %c4Technology%]&lt;/div&gt;&lt;br&gt;&lt;div&gt;&lt;font style=&quot;font-size: 11px&quot;&gt;&lt;font color=&quot;#E6E6E6&quot;&gt;%c4Description%&lt;/font&gt;&lt;/div&gt;" id="Wm8hpZQMGMew1f8nQcQY-15">
          <mxCell style="rounded=1;whiteSpace=wrap;html=1;fontSize=11;labelBackgroundColor=none;fillColor=#23A2D9;fontColor=#ffffff;align=center;arcSize=10;strokeColor=#0E7DAD;metaEdit=1;resizable=0;points=[[0.25,0,0],[0.5,0,0],[0.75,0,0],[1,0.25,0],[1,0.5,0],[1,0.75,0],[0.75,1,0],[0.5,1,0],[0.25,1,0],[0,0.75,0],[0,0.5,0],[0,0.25,0]];" vertex="1" parent="1">
            <mxGeometry x="340" y="140" width="240" height="120" as="geometry" />
          </mxCell>
        </object>
        <mxCell id="Wm8hpZQMGMew1f8nQcQY-17" style="edgeStyle=orthogonalEdgeStyle;rounded=0;orthogonalLoop=1;jettySize=auto;html=1;" edge="1" parent="1" source="Wm8hpZQMGMew1f8nQcQY-16" target="Wm8hpZQMGMew1f8nQcQY-15">
          <mxGeometry relative="1" as="geometry" />
        </mxCell>
        <object placeholders="1" c4Name="Mobile" c4Type="Container" c4Technology="React" c4Description="Recebe o comando de acessibilidade do usuário e envia a requisição." label="&lt;font style=&quot;font-size: 16px&quot;&gt;&lt;b&gt;%c4Name%&lt;/b&gt;&lt;/font&gt;&lt;div&gt;[%c4Type%:&amp;nbsp;%c4Technology%]&lt;/div&gt;&lt;br&gt;&lt;div&gt;&lt;font style=&quot;font-size: 11px&quot;&gt;&lt;font color=&quot;#E6E6E6&quot;&gt;%c4Description%&lt;/font&gt;&lt;/div&gt;" id="Wm8hpZQMGMew1f8nQcQY-16">
          <mxCell style="shape=mxgraph.c4.webBrowserContainer2;whiteSpace=wrap;html=1;boundedLbl=1;rounded=0;labelBackgroundColor=none;strokeColor=#118ACD;fillColor=#23A2D9;strokeColor=#118ACD;strokeColor2=#0E7DAD;fontSize=12;fontColor=#ffffff;align=center;metaEdit=1;points=[[0.5,0,0],[1,0.25,0],[1,0.5,0],[1,0.75,0],[0.5,1,0],[0,0.75,0],[0,0.5,0],[0,0.25,0]];resizable=0;" vertex="1" parent="1">
            <mxGeometry x="340" y="-110" width="240" height="160" as="geometry" />
          </mxCell>
        </object>
        <mxCell id="s19MXonuL2efLYlHZdm--3" style="edgeStyle=orthogonalEdgeStyle;rounded=0;orthogonalLoop=1;jettySize=auto;html=1;" edge="1" parent="1" source="Wm8hpZQMGMew1f8nQcQY-18" target="Wm8hpZQMGMew1f8nQcQY-19">
          <mxGeometry relative="1" as="geometry" />
        </mxCell>
        <mxCell id="s19MXonuL2efLYlHZdm--4" style="edgeStyle=orthogonalEdgeStyle;rounded=0;orthogonalLoop=1;jettySize=auto;html=1;" edge="1" parent="1" source="Wm8hpZQMGMew1f8nQcQY-18" target="Wm8hpZQMGMew1f8nQcQY-21">
          <mxGeometry relative="1" as="geometry" />
        </mxCell>
        <object placeholders="1" c4Name="Ticket Controller" c4Type="Component" c4Technology="SpringBoot MVC Rest Controller" c4Description="Responsável por receber os dados de preferencia de acessibilidade do usuário, e enviar para api externa de cadastro do formulario e geração dos tickets" label="&lt;font style=&quot;font-size: 16px&quot;&gt;&lt;b&gt;%c4Name%&lt;/b&gt;&lt;/font&gt;&lt;div&gt;[%c4Type%: %c4Technology%]&lt;/div&gt;&lt;br&gt;&lt;div&gt;&lt;font style=&quot;font-size: 11px&quot;&gt;&lt;font color=&quot;#E6E6E6&quot;&gt;%c4Description%&lt;/font&gt;&lt;/div&gt;" id="Wm8hpZQMGMew1f8nQcQY-18">
          <mxCell style="rounded=1;whiteSpace=wrap;html=1;fontSize=11;labelBackgroundColor=none;fillColor=#23A2D9;fontColor=#ffffff;align=center;arcSize=10;strokeColor=#0E7DAD;metaEdit=1;resizable=0;points=[[0.25,0,0],[0.5,0,0],[0.75,0,0],[1,0.25,0],[1,0.5,0],[1,0.75,0],[0.75,1,0],[0.5,1,0],[0.25,1,0],[0,0.75,0],[0,0.5,0],[0,0.25,0]];" vertex="1" parent="1">
            <mxGeometry x="340" y="290" width="240" height="120" as="geometry" />
          </mxCell>
        </object>
        <mxCell id="s19MXonuL2efLYlHZdm--6" style="edgeStyle=orthogonalEdgeStyle;rounded=0;orthogonalLoop=1;jettySize=auto;html=1;" edge="1" parent="1" source="Wm8hpZQMGMew1f8nQcQY-19" target="Wm8hpZQMGMew1f8nQcQY-20">
          <mxGeometry relative="1" as="geometry" />
        </mxCell>
        <object placeholders="1" c4Name="ORM" c4Type="Component" c4Technology="JPA" c4Description="Componente que gerencia as conexões e transações com o banco de dados" label="&lt;font style=&quot;font-size: 16px&quot;&gt;&lt;b&gt;%c4Name%&lt;/b&gt;&lt;/font&gt;&lt;div&gt;[%c4Type%: %c4Technology%]&lt;/div&gt;&lt;br&gt;&lt;div&gt;&lt;font style=&quot;font-size: 11px&quot;&gt;&lt;font color=&quot;#E6E6E6&quot;&gt;%c4Description%&lt;/font&gt;&lt;/div&gt;" id="Wm8hpZQMGMew1f8nQcQY-19">
          <mxCell style="rounded=1;whiteSpace=wrap;html=1;fontSize=11;labelBackgroundColor=none;fillColor=#23A2D9;fontColor=#ffffff;align=center;arcSize=10;strokeColor=#0E7DAD;metaEdit=1;resizable=0;points=[[0.25,0,0],[0.5,0,0],[0.75,0,0],[1,0.25,0],[1,0.5,0],[1,0.75,0],[0.75,1,0],[0.5,1,0],[0.25,1,0],[0,0.75,0],[0,0.5,0],[0,0.25,0]];" vertex="1" parent="1">
            <mxGeometry x="340" y="440" width="240" height="120" as="geometry" />
          </mxCell>
        </object>
        <object placeholders="1" c4Name="Banco de Dados" c4Type="Container" c4Technology="MySQL" c4Description="Armazenamento de preferências de acessibilidade do usuário (tamanho da fonte, contraste, idioma preferido de legendas)." label="&lt;font style=&quot;font-size: 16px&quot;&gt;&lt;b&gt;%c4Name%&lt;/b&gt;&lt;/font&gt;&lt;div&gt;[%c4Type%:&amp;nbsp;%c4Technology%]&lt;/div&gt;&lt;br&gt;&lt;div&gt;&lt;font style=&quot;font-size: 10px&quot;&gt;&lt;font color=&quot;#E6E6E6&quot;&gt;%c4Description%&lt;/font&gt;&lt;/div&gt;" id="Wm8hpZQMGMew1f8nQcQY-20">
          <mxCell style="shape=cylinder3;size=15;whiteSpace=wrap;html=1;boundedLbl=1;rounded=0;labelBackgroundColor=none;fontSize=12;align=center;metaEdit=1;points=[[0.5,0,0],[1,0.25,0],[1,0.5,0],[1,0.75,0],[0.5,1,0],[0,0.75,0],[0,0.5,0],[0,0.25,0]];resizable=0;fillColor=#999999;fontColor=#ffffff;strokeColor=#314354;" vertex="1" parent="1">
            <mxGeometry x="340" y="630" width="240" height="120" as="geometry" />
          </mxCell>
        </object>
        <mxCell id="s19MXonuL2efLYlHZdm--5" style="edgeStyle=orthogonalEdgeStyle;rounded=0;orthogonalLoop=1;jettySize=auto;html=1;" edge="1" parent="1" source="Wm8hpZQMGMew1f8nQcQY-21" target="s19MXonuL2efLYlHZdm--1">
          <mxGeometry relative="1" as="geometry" />
        </mxCell>
        <object placeholders="1" c4Name="API Gateway" c4Type="Component" c4Technology="Apigee" c4Description="Responsável por fazer requisições em APIs externas" label="&lt;font style=&quot;font-size: 16px&quot;&gt;&lt;b&gt;%c4Name%&lt;/b&gt;&lt;/font&gt;&lt;div&gt;[%c4Type%: %c4Technology%]&lt;/div&gt;&lt;br&gt;&lt;div&gt;&lt;font style=&quot;font-size: 11px&quot;&gt;&lt;font color=&quot;#E6E6E6&quot;&gt;%c4Description%&lt;/font&gt;&lt;/div&gt;" id="Wm8hpZQMGMew1f8nQcQY-21">
          <mxCell style="rounded=1;whiteSpace=wrap;html=1;fontSize=11;labelBackgroundColor=none;fillColor=#23A2D9;fontColor=#ffffff;align=center;arcSize=10;strokeColor=#0E7DAD;metaEdit=1;resizable=0;points=[[0.25,0,0],[0.5,0,0],[0.75,0,0],[1,0.25,0],[1,0.5,0],[1,0.75,0],[0.75,1,0],[0.5,1,0],[0.25,1,0],[0,0.75,0],[0,0.5,0],[0,0.25,0]];" vertex="1" parent="1">
            <mxGeometry x="720" y="290" width="240" height="120" as="geometry" />
          </mxCell>
        </object>
        <object placeholders="1" c4Name="JIRA APPICLATION" c4Type="Component" c4Technology="API JIRA" c4Description="API Responsavel por abertura, classificações e gerenciamentos dos chamados" label="&lt;font style=&quot;font-size: 16px&quot;&gt;&lt;b&gt;%c4Name%&lt;/b&gt;&lt;/font&gt;&lt;div&gt;[%c4Type%: %c4Technology%]&lt;/div&gt;&lt;br&gt;&lt;div&gt;&lt;font style=&quot;font-size: 11px&quot;&gt;%c4Description%&lt;/font&gt;&lt;/div&gt;" id="s19MXonuL2efLYlHZdm--1">
          <mxCell style="rounded=1;whiteSpace=wrap;html=1;labelBackgroundColor=none;fillColor=#CCCCCC;fontColor=#000000;align=center;arcSize=6;strokeColor=#000000;metaEdit=1;resizable=0;points=[[0.25,0,0],[0.5,0,0],[0.75,0,0],[1,0.25,0],[1,0.5,0],[1,0.75,0],[0.75,1,0],[0.5,1,0],[0.25,1,0],[0,0.75,0],[0,0.5,0],[0,0.25,0]];dashed=1;dashPattern=12 12;" vertex="1" parent="1">
            <mxGeometry x="720" y="620" width="240" height="120" as="geometry" />
          </mxCell>
        </object>
      </root>
    </mxGraphModel>
  </diagram>
  <diagram name="Componente_Translation" id="oK4RspH_J7tA2HCZxpZx">
    <mxGraphModel dx="2800" dy="995" grid="1" gridSize="10" guides="1" tooltips="1" connect="1" arrows="1" fold="1" page="1" pageScale="1" pageWidth="850" pageHeight="1100" math="0" shadow="0">
      <root>
        <mxCell id="0" />
        <mxCell id="1" parent="0" />
        <object placeholders="1" c4Name="Park Water" c4Type="SystemScopeBoundary" c4Application="System Translation" label="&lt;font style=&quot;font-size: 16px&quot;&gt;&lt;b&gt;&lt;div style=&quot;text-align: left&quot;&gt;%c4Name%&lt;/div&gt;&lt;/b&gt;&lt;/font&gt;&lt;div style=&quot;text-align: left&quot;&gt;[%c4Application%]&lt;/div&gt;" id="hLxz0UvvGZincIAE3Ktn-1">
          <mxCell style="rounded=1;fontSize=11;whiteSpace=wrap;html=1;dashed=1;arcSize=20;fillColor=none;strokeColor=#666666;fontColor=#333333;labelBackgroundColor=none;align=left;verticalAlign=bottom;labelBorderColor=none;spacingTop=0;spacing=10;dashPattern=8 4;metaEdit=1;rotatable=0;perimeter=rectanglePerimeter;noLabel=0;labelPadding=0;allowArrows=0;connectable=0;expand=0;recursiveResize=0;editable=1;pointerEvents=0;absoluteArcSize=1;points=[[0.25,0,0],[0.5,0,0],[0.75,0,0],[1,0.25,0],[1,0.5,0],[1,0.75,0],[0.75,1,0],[0.5,1,0],[0.25,1,0],[0,0.75,0],[0,0.5,0],[0,0.25,0]];" parent="1" vertex="1">
            <mxGeometry x="-270" y="470" width="650" height="510" as="geometry" />
          </mxCell>
        </object>
        <object placeholders="1" c4Name="Banco de Dados" c4Type="Container" c4Technology="MySQL" c4Description="Armazenamento de preferências de acessibilidade do usuário (tamanho da fonte, contraste, idioma preferido de legendas)." label="&lt;font style=&quot;font-size: 16px&quot;&gt;&lt;b&gt;%c4Name%&lt;/b&gt;&lt;/font&gt;&lt;div&gt;[%c4Type%:&amp;nbsp;%c4Technology%]&lt;/div&gt;&lt;br&gt;&lt;div&gt;&lt;font style=&quot;font-size: 10px&quot;&gt;&lt;font color=&quot;#E6E6E6&quot;&gt;%c4Description%&lt;/font&gt;&lt;/div&gt;" id="hLxz0UvvGZincIAE3Ktn-2">
          <mxCell style="shape=cylinder3;size=15;whiteSpace=wrap;html=1;boundedLbl=1;rounded=0;labelBackgroundColor=none;fontSize=12;align=center;metaEdit=1;points=[[0.5,0,0],[1,0.25,0],[1,0.5,0],[1,0.75,0],[0.5,1,0],[0,0.75,0],[0,0.5,0],[0,0.25,0]];resizable=0;fillColor=#999999;fontColor=#ffffff;strokeColor=#314354;" parent="1" vertex="1">
            <mxGeometry x="110" y="200" width="240" height="120" as="geometry" />
          </mxCell>
        </object>
        <mxCell id="hLxz0UvvGZincIAE3Ktn-9" style="edgeStyle=orthogonalEdgeStyle;rounded=0;orthogonalLoop=1;jettySize=auto;html=1;entryX=0.5;entryY=0;entryDx=0;entryDy=0;entryPerimeter=0;" parent="1" source="hLxz0UvvGZincIAE3Ktn-5" edge="1" target="B66PbLaP17Ljf8Vv8P7c-1">
          <mxGeometry relative="1" as="geometry">
            <mxPoint x="-100" y="520" as="targetPoint" />
          </mxGeometry>
        </mxCell>
        <object placeholders="1" c4Name="Mobile" c4Type="Container" c4Technology="React" c4Description="Recebe o comando de acessibilidade do usuário e envia a requisição." label="&lt;font style=&quot;font-size: 16px&quot;&gt;&lt;b&gt;%c4Name%&lt;/b&gt;&lt;/font&gt;&lt;div&gt;[%c4Type%:&amp;nbsp;%c4Technology%]&lt;/div&gt;&lt;br&gt;&lt;div&gt;&lt;font style=&quot;font-size: 11px&quot;&gt;&lt;font color=&quot;#E6E6E6&quot;&gt;%c4Description%&lt;/font&gt;&lt;/div&gt;" id="hLxz0UvvGZincIAE3Ktn-5">
          <mxCell style="shape=mxgraph.c4.webBrowserContainer2;whiteSpace=wrap;html=1;boundedLbl=1;rounded=0;labelBackgroundColor=none;strokeColor=#118ACD;fillColor=#23A2D9;strokeColor=#118ACD;strokeColor2=#0E7DAD;fontSize=12;fontColor=#ffffff;align=center;metaEdit=1;points=[[0.5,0,0],[1,0.25,0],[1,0.5,0],[1,0.75,0],[0.5,1,0],[0,0.75,0],[0,0.5,0],[0,0.25,0]];resizable=0;" parent="1" vertex="1">
            <mxGeometry x="-220" y="170" width="240" height="160" as="geometry" />
          </mxCell>
        </object>
        <object placeholders="1" c4Name="ORM" c4Type="Component" c4Technology="JPA" c4Description="Componente que gerencia as conexões e transações com o banco de dados" label="&lt;font style=&quot;font-size: 16px&quot;&gt;&lt;b&gt;%c4Name%&lt;/b&gt;&lt;/font&gt;&lt;div&gt;[%c4Type%: %c4Technology%]&lt;/div&gt;&lt;br&gt;&lt;div&gt;&lt;font style=&quot;font-size: 11px&quot;&gt;&lt;font color=&quot;#E6E6E6&quot;&gt;%c4Description%&lt;/font&gt;&lt;/div&gt;" id="hLxz0UvvGZincIAE3Ktn-10">
          <mxCell style="rounded=1;whiteSpace=wrap;html=1;fontSize=11;labelBackgroundColor=none;fillColor=#23A2D9;fontColor=#ffffff;align=center;arcSize=10;strokeColor=#0E7DAD;metaEdit=1;resizable=0;points=[[0.25,0,0],[0.5,0,0],[0.75,0,0],[1,0.25,0],[1,0.5,0],[1,0.75,0],[0.75,1,0],[0.5,1,0],[0.25,1,0],[0,0.75,0],[0,0.5,0],[0,0.25,0]];" parent="1" vertex="1">
            <mxGeometry x="110" y="550" width="240" height="120" as="geometry" />
          </mxCell>
        </object>
        <mxCell id="hLxz0UvvGZincIAE3Ktn-15" style="edgeStyle=orthogonalEdgeStyle;rounded=0;orthogonalLoop=1;jettySize=auto;html=1;" parent="1" source="hLxz0UvvGZincIAE3Ktn-12" edge="1" target="hLxz0UvvGZincIAE3Ktn-10">
          <mxGeometry relative="1" as="geometry">
            <mxPoint x="70" y="580" as="targetPoint" />
          </mxGeometry>
        </mxCell>
        <mxCell id="I7-DwYfxGj43Q6ZHMF4o-1" style="edgeStyle=orthogonalEdgeStyle;rounded=0;orthogonalLoop=1;jettySize=auto;html=1;" edge="1" parent="1" source="hLxz0UvvGZincIAE3Ktn-12" target="hLxz0UvvGZincIAE3Ktn-17">
          <mxGeometry relative="1" as="geometry" />
        </mxCell>
        <object placeholders="1" c4Name="Voice Controller" c4Type="Component" c4Technology="SpringBoot MVC Rest Controller" c4Description="Responsável por receber os dados de preferencia de acessibilidade do usuário, e enviar para api externa de conversão de texto em fala." label="&lt;font style=&quot;font-size: 16px&quot;&gt;&lt;b&gt;%c4Name%&lt;/b&gt;&lt;/font&gt;&lt;div&gt;[%c4Type%: %c4Technology%]&lt;/div&gt;&lt;br&gt;&lt;div&gt;&lt;font style=&quot;font-size: 11px&quot;&gt;&lt;font color=&quot;#E6E6E6&quot;&gt;%c4Description%&lt;/font&gt;&lt;/div&gt;" id="hLxz0UvvGZincIAE3Ktn-12">
          <mxCell style="rounded=1;whiteSpace=wrap;html=1;fontSize=11;labelBackgroundColor=none;fillColor=#23A2D9;fontColor=#ffffff;align=center;arcSize=10;strokeColor=#0E7DAD;metaEdit=1;resizable=0;points=[[0.25,0,0],[0.5,0,0],[0.75,0,0],[1,0.25,0],[1,0.5,0],[1,0.75,0],[0.75,1,0],[0.5,1,0],[0.25,1,0],[0,0.75,0],[0,0.5,0],[0,0.25,0]];" parent="1" vertex="1">
            <mxGeometry x="-220" y="650" width="240" height="120" as="geometry" />
          </mxCell>
        </object>
        <mxCell id="hLxz0UvvGZincIAE3Ktn-18" style="edgeStyle=orthogonalEdgeStyle;rounded=0;orthogonalLoop=1;jettySize=auto;html=1;" parent="1" source="hLxz0UvvGZincIAE3Ktn-17" edge="1">
          <mxGeometry relative="1" as="geometry">
            <mxPoint x="-360" y="859.9999999999998" as="targetPoint" />
          </mxGeometry>
        </mxCell>
        <object placeholders="1" c4Name="APT Gateway" c4Type="Component" c4Technology="Apigee" c4Description="Responsável por fazer requisições em APIs externas" label="&lt;font style=&quot;font-size: 16px&quot;&gt;&lt;b&gt;%c4Name%&lt;/b&gt;&lt;/font&gt;&lt;div&gt;[%c4Type%: %c4Technology%]&lt;/div&gt;&lt;br&gt;&lt;div&gt;&lt;font style=&quot;font-size: 11px&quot;&gt;&lt;font color=&quot;#E6E6E6&quot;&gt;%c4Description%&lt;/font&gt;&lt;/div&gt;" id="hLxz0UvvGZincIAE3Ktn-17">
          <mxCell style="rounded=1;whiteSpace=wrap;html=1;fontSize=11;labelBackgroundColor=none;fillColor=#23A2D9;fontColor=#ffffff;align=center;arcSize=10;strokeColor=#0E7DAD;metaEdit=1;resizable=0;points=[[0.25,0,0],[0.5,0,0],[0.75,0,0],[1,0.25,0],[1,0.5,0],[1,0.75,0],[0.75,1,0],[0.5,1,0],[0.25,1,0],[0,0.75,0],[0,0.5,0],[0,0.25,0]];" parent="1" vertex="1">
            <mxGeometry x="-220" y="800" width="240" height="120" as="geometry" />
          </mxCell>
        </object>
        <mxCell id="B66PbLaP17Ljf8Vv8P7c-2" style="edgeStyle=orthogonalEdgeStyle;rounded=0;orthogonalLoop=1;jettySize=auto;html=1;" edge="1" parent="1" source="B66PbLaP17Ljf8Vv8P7c-1" target="hLxz0UvvGZincIAE3Ktn-12">
          <mxGeometry relative="1" as="geometry" />
        </mxCell>
        <object placeholders="1" c4Name="API Gateway" c4Type="Component" c4Technology="Apigee" c4Description="Responsável por centralizar rqueisições em APIs" label="&lt;font style=&quot;font-size: 16px&quot;&gt;&lt;b&gt;%c4Name%&lt;/b&gt;&lt;/font&gt;&lt;div&gt;[%c4Type%: %c4Technology%]&lt;/div&gt;&lt;br&gt;&lt;div&gt;&lt;font style=&quot;font-size: 11px&quot;&gt;&lt;font color=&quot;#E6E6E6&quot;&gt;%c4Description%&lt;/font&gt;&lt;/div&gt;" id="B66PbLaP17Ljf8Vv8P7c-1">
          <mxCell style="rounded=1;whiteSpace=wrap;html=1;fontSize=11;labelBackgroundColor=none;fillColor=#23A2D9;fontColor=#ffffff;align=center;arcSize=10;strokeColor=#0E7DAD;metaEdit=1;resizable=0;points=[[0.25,0,0],[0.5,0,0],[0.75,0,0],[1,0.25,0],[1,0.5,0],[1,0.75,0],[0.75,1,0],[0.5,1,0],[0.25,1,0],[0,0.75,0],[0,0.5,0],[0,0.25,0]];" vertex="1" parent="1">
            <mxGeometry x="-220" y="500" width="240" height="120" as="geometry" />
          </mxCell>
        </object>
        <mxCell id="B66PbLaP17Ljf8Vv8P7c-5" style="edgeStyle=orthogonalEdgeStyle;rounded=0;orthogonalLoop=1;jettySize=auto;html=1;entryX=0.5;entryY=1;entryDx=0;entryDy=0;entryPerimeter=0;" edge="1" parent="1" source="hLxz0UvvGZincIAE3Ktn-10" target="hLxz0UvvGZincIAE3Ktn-2">
          <mxGeometry relative="1" as="geometry" />
        </mxCell>
        <object placeholders="1" c4Name="Google Cloud Text-to-Speech" c4Type="Component" c4Technology="API Google" c4Description="Api externa que converte textos em JSON para um arquivo de aúdio." label="&lt;font style=&quot;font-size: 16px&quot;&gt;&lt;b&gt;%c4Name%&lt;/b&gt;&lt;/font&gt;&lt;div&gt;[%c4Type%: %c4Technology%]&lt;/div&gt;&lt;br&gt;&lt;div&gt;&lt;font style=&quot;font-size: 11px&quot;&gt;%c4Description%&lt;/font&gt;&lt;/div&gt;" id="U5OaE1LuLclHv8q1vM_0-1">
          <mxCell style="rounded=1;whiteSpace=wrap;html=1;labelBackgroundColor=none;fillColor=#CCCCCC;fontColor=#000000;align=center;arcSize=6;strokeColor=#000000;metaEdit=1;resizable=0;points=[[0.25,0,0],[0.5,0,0],[0.75,0,0],[1,0.25,0],[1,0.5,0],[1,0.75,0],[0.75,1,0],[0.5,1,0],[0.25,1,0],[0,0.75,0],[0,0.5,0],[0,0.25,0]];dashed=1;dashPattern=12 12;" vertex="1" parent="1">
            <mxGeometry x="-600" y="810" width="240" height="120" as="geometry" />
          </mxCell>
        </object>
      </root>
    </mxGraphModel>
  </diagram>
  <diagram id="tvgSK7vtDthPmwWvnwJ3" name="Componente_Location">
    <mxGraphModel dx="4288" dy="1822" grid="1" gridSize="10" guides="1" tooltips="1" connect="1" arrows="1" fold="1" page="1" pageScale="1" pageWidth="1169" pageHeight="827" math="0" shadow="0">
      <root>
        <mxCell id="0" />
        <mxCell id="1" parent="0" />
        <object placeholders="1" c4Name="Park Water" c4Type="SystemScopeBoundary" c4Application="System Location" label="&lt;font style=&quot;font-size: 16px&quot;&gt;&lt;b&gt;&lt;div style=&quot;text-align: left&quot;&gt;%c4Name%&lt;/div&gt;&lt;/b&gt;&lt;/font&gt;&lt;div style=&quot;text-align: left&quot;&gt;[%c4Application%]&lt;/div&gt;" id="6aNWQhdlSMIgf8rVINgC-1">
          <mxCell style="rounded=1;fontSize=11;whiteSpace=wrap;html=1;dashed=1;arcSize=20;fillColor=none;strokeColor=#666666;fontColor=#333333;labelBackgroundColor=none;align=left;verticalAlign=bottom;labelBorderColor=none;spacingTop=0;spacing=10;dashPattern=8 4;metaEdit=1;rotatable=0;perimeter=rectanglePerimeter;noLabel=0;labelPadding=0;allowArrows=0;connectable=0;expand=0;recursiveResize=0;editable=1;pointerEvents=0;absoluteArcSize=1;points=[[0.25,0,0],[0.5,0,0],[0.75,0,0],[1,0.25,0],[1,0.5,0],[1,0.75,0],[0.75,1,0],[0.5,1,0],[0.25,1,0],[0,0.75,0],[0,0.5,0],[0,0.25,0]];" vertex="1" parent="1">
            <mxGeometry x="-1220" y="40" width="970" height="480" as="geometry" />
          </mxCell>
        </object>
        <mxCell id="6aNWQhdlSMIgf8rVINgC-2" style="edgeStyle=orthogonalEdgeStyle;rounded=0;orthogonalLoop=1;jettySize=auto;html=1;" edge="1" parent="1" source="6aNWQhdlSMIgf8rVINgC-3" target="6aNWQhdlSMIgf8rVINgC-8">
          <mxGeometry relative="1" as="geometry" />
        </mxCell>
        <object placeholders="1" c4Name="API Gateway" c4Type="Component" c4Technology="Apigee" c4Description="Responsável por centralizar rqueisições em APIs" label="&lt;font style=&quot;font-size: 16px&quot;&gt;&lt;b&gt;%c4Name%&lt;/b&gt;&lt;/font&gt;&lt;div&gt;[%c4Type%: %c4Technology%]&lt;/div&gt;&lt;br&gt;&lt;div&gt;&lt;font style=&quot;font-size: 11px&quot;&gt;&lt;font color=&quot;#E6E6E6&quot;&gt;%c4Description%&lt;/font&gt;&lt;/div&gt;" id="6aNWQhdlSMIgf8rVINgC-3">
          <mxCell style="rounded=1;whiteSpace=wrap;html=1;fontSize=11;labelBackgroundColor=none;fillColor=#23A2D9;fontColor=#ffffff;align=center;arcSize=10;strokeColor=#0E7DAD;metaEdit=1;resizable=0;points=[[0.25,0,0],[0.5,0,0],[0.75,0,0],[1,0.25,0],[1,0.5,0],[1,0.75,0],[0.75,1,0],[0.5,1,0],[0.25,1,0],[0,0.75,0],[0,0.5,0],[0,0.25,0]];" vertex="1" parent="1">
            <mxGeometry x="-1060" y="80" width="240" height="120" as="geometry" />
          </mxCell>
        </object>
        <mxCell id="6aNWQhdlSMIgf8rVINgC-4" style="edgeStyle=orthogonalEdgeStyle;rounded=0;orthogonalLoop=1;jettySize=auto;html=1;" edge="1" parent="1" source="6aNWQhdlSMIgf8rVINgC-5" target="6aNWQhdlSMIgf8rVINgC-3">
          <mxGeometry relative="1" as="geometry" />
        </mxCell>
        <object placeholders="1" c4Name="Mobile" c4Type="Container" c4Technology="React" c4Description="Recebe o comando de acessibilidade do usuário e envia a requisição." label="&lt;font style=&quot;font-size: 16px&quot;&gt;&lt;b&gt;%c4Name%&lt;/b&gt;&lt;/font&gt;&lt;div&gt;[%c4Type%:&amp;nbsp;%c4Technology%]&lt;/div&gt;&lt;br&gt;&lt;div&gt;&lt;font style=&quot;font-size: 11px&quot;&gt;&lt;font color=&quot;#E6E6E6&quot;&gt;%c4Description%&lt;/font&gt;&lt;/div&gt;" id="6aNWQhdlSMIgf8rVINgC-5">
          <mxCell style="shape=mxgraph.c4.webBrowserContainer2;whiteSpace=wrap;html=1;boundedLbl=1;rounded=0;labelBackgroundColor=none;strokeColor=#118ACD;fillColor=#23A2D9;strokeColor=#118ACD;strokeColor2=#0E7DAD;fontSize=12;fontColor=#ffffff;align=center;metaEdit=1;points=[[0.5,0,0],[1,0.25,0],[1,0.5,0],[1,0.75,0],[0.5,1,0],[0,0.75,0],[0,0.5,0],[0,0.25,0]];resizable=0;" vertex="1" parent="1">
            <mxGeometry x="-1060" y="-170" width="240" height="160" as="geometry" />
          </mxCell>
        </object>
        <mxCell id="6aNWQhdlSMIgf8rVINgC-6" style="edgeStyle=orthogonalEdgeStyle;rounded=0;orthogonalLoop=1;jettySize=auto;html=1;" edge="1" parent="1" source="6aNWQhdlSMIgf8rVINgC-8" target="6aNWQhdlSMIgf8rVINgC-10">
          <mxGeometry relative="1" as="geometry" />
        </mxCell>
        <object placeholders="1" c4Name="Localização e Tradução Controller" c4Type="Component" c4Technology="SpringBoot MVC Rest Controller" c4Description="Responsável por receber os dados de preferencia de acessibilidade do usuário, e enviar para api externa de Tradução e localização para os usuarios" label="&lt;font style=&quot;font-size: 16px&quot;&gt;&lt;b&gt;%c4Name%&lt;/b&gt;&lt;/font&gt;&lt;div&gt;[%c4Type%: %c4Technology%]&lt;/div&gt;&lt;br&gt;&lt;div&gt;&lt;font style=&quot;font-size: 11px&quot;&gt;&lt;font color=&quot;#E6E6E6&quot;&gt;%c4Description%&lt;/font&gt;&lt;/div&gt;" id="6aNWQhdlSMIgf8rVINgC-8">
          <mxCell style="rounded=1;whiteSpace=wrap;html=1;fontSize=11;labelBackgroundColor=none;fillColor=#23A2D9;fontColor=#ffffff;align=center;arcSize=10;strokeColor=#0E7DAD;metaEdit=1;resizable=0;points=[[0.25,0,0],[0.5,0,0],[0.75,0,0],[1,0.25,0],[1,0.5,0],[1,0.75,0],[0.75,1,0],[0.5,1,0],[0.25,1,0],[0,0.75,0],[0,0.5,0],[0,0.25,0]];" vertex="1" parent="1">
            <mxGeometry x="-600" y="230" width="240" height="120" as="geometry" />
          </mxCell>
        </object>
        <mxCell id="6aNWQhdlSMIgf8rVINgC-9" style="edgeStyle=orthogonalEdgeStyle;rounded=0;orthogonalLoop=1;jettySize=auto;html=1;" edge="1" parent="1" source="6aNWQhdlSMIgf8rVINgC-10" target="6aNWQhdlSMIgf8rVINgC-11">
          <mxGeometry relative="1" as="geometry" />
        </mxCell>
        <object placeholders="1" c4Name="ORM" c4Type="Component" c4Technology="JPA" c4Description="Componente que gerencia as conexões e transações com o banco de dados" label="&lt;font style=&quot;font-size: 16px&quot;&gt;&lt;b&gt;%c4Name%&lt;/b&gt;&lt;/font&gt;&lt;div&gt;[%c4Type%: %c4Technology%]&lt;/div&gt;&lt;br&gt;&lt;div&gt;&lt;font style=&quot;font-size: 11px&quot;&gt;&lt;font color=&quot;#E6E6E6&quot;&gt;%c4Description%&lt;/font&gt;&lt;/div&gt;" id="6aNWQhdlSMIgf8rVINgC-10">
          <mxCell style="rounded=1;whiteSpace=wrap;html=1;fontSize=11;labelBackgroundColor=none;fillColor=#23A2D9;fontColor=#ffffff;align=center;arcSize=10;strokeColor=#0E7DAD;metaEdit=1;resizable=0;points=[[0.25,0,0],[0.5,0,0],[0.75,0,0],[1,0.25,0],[1,0.5,0],[1,0.75,0],[0.75,1,0],[0.5,1,0],[0.25,1,0],[0,0.75,0],[0,0.5,0],[0,0.25,0]];" vertex="1" parent="1">
            <mxGeometry x="-1060" y="380" width="240" height="120" as="geometry" />
          </mxCell>
        </object>
        <object placeholders="1" c4Name="Banco de Dados" c4Type="Container" c4Technology="MySQL" c4Description="Armazenamento de preferências de acessibilidade do usuário (tamanho da fonte, contraste, idioma preferido de legendas)." label="&lt;font style=&quot;font-size: 16px&quot;&gt;&lt;b&gt;%c4Name%&lt;/b&gt;&lt;/font&gt;&lt;div&gt;[%c4Type%:&amp;nbsp;%c4Technology%]&lt;/div&gt;&lt;br&gt;&lt;div&gt;&lt;font style=&quot;font-size: 10px&quot;&gt;&lt;font color=&quot;#E6E6E6&quot;&gt;%c4Description%&lt;/font&gt;&lt;/div&gt;" id="6aNWQhdlSMIgf8rVINgC-11">
          <mxCell style="shape=cylinder3;size=15;whiteSpace=wrap;html=1;boundedLbl=1;rounded=0;labelBackgroundColor=none;fontSize=12;align=center;metaEdit=1;points=[[0.5,0,0],[1,0.25,0],[1,0.5,0],[1,0.75,0],[0.5,1,0],[0,0.75,0],[0,0.5,0],[0,0.25,0]];resizable=0;fillColor=#999999;fontColor=#ffffff;strokeColor=#314354;" vertex="1" parent="1">
            <mxGeometry x="-1060" y="570" width="240" height="120" as="geometry" />
          </mxCell>
        </object>
      </root>
    </mxGraphModel>
  </diagram>
</mxfile>
